<svg xmlns="http://www.w3.org/2000/svg" viewBox="0 0 186.89 186.89"><g id="Layer_2" data-name="Layer 2"><g id="About_Boolean" data-name="About Boolean"><path d="M104.39,106.11c-2.38,0-5.39-1.79-6.72-5.8A16,16,0,0,1,97,95.54a9.83,9.83,0,0,1,2.55-6.72,5.31,5.31,0,0,1,3.26-1.48,6.49,6.49,0,0,1,4.28,2,12.44,12.44,0,0,1,2.64,8.13,12.14,12.14,0,0,1-2.36,7C105.9,106,104.79,106.11,104.39,106.11Z" transform="translate(-0.5 -0.5)"/><path d="M102.84,87.84a5.94,5.94,0,0,1,3.89,1.82,12.17,12.17,0,0,1,.33,14.42c-1.42,1.42-2.4,1.53-2.67,1.53-2.21,0-5-1.69-6.25-5.45a15.68,15.68,0,0,1-.61-4.62,9.45,9.45,0,0,1,2.36-6.33,4.87,4.87,0,0,1,3-1.37m0-1a5.82,5.82,0,0,0-3.6,1.61,10.39,10.39,0,0,0-2.71,7.09,16.65,16.65,0,0,0,.66,4.92c1.39,4.16,4.54,6.15,7.2,6.15.61,0,1.83-.28,3.38-1.83,1.38-1.49,2.49-4.92,2.49-7.31A12.81,12.81,0,0,0,107.49,89a7,7,0,0,0-4.65-2.16Z" transform="translate(-0.5 -0.5)"/><path d="M77.26,106a8.21,8.21,0,0,1-4.8-2.18,3.46,3.46,0,0,1-1-2.44c-.3-3.19-.44-6.15-.44-8.84,0-1.11,0-2.67.1-3.16a1,1,0,0,1,.23-.47,5.11,5.11,0,0,1,3-.74,8.14,8.14,0,0,1,5.68,2.23,10.94,10.94,0,0,1,2.57,6.79c0,2.29-.91,5.64-2.39,7.06A6.71,6.71,0,0,1,77.26,106Z" transform="translate(-0.5 -0.5)"/><path d="M74.43,88.62a7.63,7.63,0,0,1,5.3,2.06,10.38,10.38,0,0,1,2.45,6.46c0,2.46-1,5.53-2.22,6.68a6.8,6.8,0,0,1-2.7,1.63,7.79,7.79,0,0,1-4.45-2,3,3,0,0,1-.82-2.15c-.29-3.15-.43-6.1-.43-8.77,0-1.2,0-2.68.1-3.07a.38.38,0,0,1,.07-.18,4.65,4.65,0,0,1,2.7-.62m0-1a5.62,5.62,0,0,0-3.32.83,1.26,1.26,0,0,0-.44.83c-.06.5-.11,2-.11,3.21,0,2.88.16,5.87.44,8.86a3.92,3.92,0,0,0,1.11,2.77,8.63,8.63,0,0,0,5.15,2.33,7,7,0,0,0,3.37-1.89c1.55-1.49,2.55-4.93,2.55-7.42A11.47,11.47,0,0,0,80.47,90a8.69,8.69,0,0,0-6-2.38Z" transform="translate(-0.5 -0.5)"/><path d="M94,186.89A92.95,92.95,0,1,1,186.89,94,93.05,93.05,0,0,1,94,186.89ZM147.8,89.75c0,1-.05,3.44-.1,5.9s-.12,5.27-.12,6.31a7,7,0,0,0,.8,3.93,6.35,6.35,0,0,0,5.3,2.83,8.81,8.81,0,0,0,6.27-2.58,2.89,2.89,0,0,0,.93-1.74c0-.77-.49-1.11-.84-1.11a2,2,0,0,0-1.07.39,5.56,5.56,0,0,1-2.47.77,4.18,4.18,0,0,1-3-.92,2.89,2.89,0,0,1-.78-2.35c0-2.47,0-10.24.11-11.75l6,0c.89,0,1.94-.29,1.94-1.11a8.81,8.81,0,0,0-.17-2.1h0c0-.57-.89-.94-1.11-.94l-1.35,0c-1.73.07-4.62.18-5.46.18l.06-2.55c0-.43-.78-1.11-1.28-1.11s-.83.44-1.65,1.4a31.75,31.75,0,0,1-3.74,3.26l-.63.49a1.46,1.46,0,0,0-.52,1c0,.63.92,1,1.1,1.08A5.16,5.16,0,0,1,147.8,89.75Zm-12.88,15.76c0,.36-.07.73-.1,1s-.09.73-.09.89a1.27,1.27,0,0,0,1.06,1.28c.31,0,2.06-.52,2.08-.52a34.19,34.19,0,0,1,4.93-1h0a1.31,1.31,0,0,0,1.07-1.06V106l0-.08c-.08-.23-.5-1.39-1.14-1.39-.41,0-1.13.09-1.77.17-.45.06-.84.11-1,.11a.92.92,0,0,1-.17-.33c0-4.48.44-16.68.56-18.3,0-.55-.24-1.36-.89-1.36a4.93,4.93,0,0,0-1.47.24,26.88,26.88,0,0,1-5.78.59c-.48,0-1.77.24-1.77,1,0,.92,1.32,1.32,1.47,1.36.43.1,1.31.34,2.07.54l.48.13a2,2,0,0,1,.57.76l-.11,12.71a3.58,3.58,0,0,1-.65.95,6.33,6.33,0,0,1-3.89,1.82,4.65,4.65,0,0,1-3.46-1,3.54,3.54,0,0,1-1.19-2.7c0-1,0-3.32.08-5.84,0-3.7.12-7.88.09-9,0-.46-.32-1.31-.95-1.31l-1,.12c-1.32.17-3.78.49-4.87.49-.91,0-1.45.51-1.45,1,0,.88.88,1.26,1.3,1.45l.33.13c.83.32,1.38.54,1.42,1.59.11,2.93.11,9.09.11,13.16a6,6,0,0,0,.85,2.87,6.1,6.1,0,0,0,5.3,2.84,10.12,10.12,0,0,0,3.9-.71A32.79,32.79,0,0,0,134.92,105.51Zm-31-20.83a13,13,0,0,0-8.52,3.17,11.23,11.23,0,0,0-4.05,9,12.82,12.82,0,0,0,4.28,8.86,12.47,12.47,0,0,0,7.68,3,11.53,11.53,0,0,0,7.16-2.31,12.47,12.47,0,0,0,5-9.93A11.57,11.57,0,0,0,103.89,84.68Zm-35.8,22.87h.1a30.9,30.9,0,0,0,7.24,1.16,13.13,13.13,0,0,0,7.85-2.61,12.63,12.63,0,0,0,5-10.13,11.14,11.14,0,0,0-3.84-8.74,11,11,0,0,0-7.18-2.56,13.28,13.28,0,0,0-6.19,1.72C71,85.34,71,83.12,71,82.08c0-3.41.2-7.41.37-10.62,0-1,.09-1.88.13-2.7,0-.46-.56-1.24-1.11-1.24a5.26,5.26,0,0,0-1.65.73,16.36,16.36,0,0,1-3.07,1.21l-1.37.47a2.29,2.29,0,0,0-1,1.24c0,.5.33.74,1.06,1.27l.25.19A3.16,3.16,0,0,1,65.8,74.2c.1.7.27,8.73.27,14.14,0,6.08-.09,14.53-.33,18.35,0,.93.44,1.25.83,1.25a2.38,2.38,0,0,0,.89-.22A1.6,1.6,0,0,1,68.09,107.55Zm-13.82.5c1.29,0,2.65.08,3.95.16,1.11.06,2.17.12,3,.12,1.51,0,2.27-.41,2.27-1.22s-1.13-1.25-1.68-1.42c-2.38-.58-3.13-.94-4.89-5.3C56,98.2,51.87,87.2,49,79.09l-.6-1.63c-.8-2.16-1.48-4-1.83-5.21s-.76-1.8-1.37-1.8-.79.35-1.18.8l-.08.09c-.32.49-.69,1.13-1,1.67l-.37.62a5.83,5.83,0,0,0-.43,1c0,.1-.06.2-.1.31a7.61,7.61,0,0,1-.39,1.1c-1.09,2.66-3.06,7.75-5,12.68-2.19,5.66-4.27,11-4.94,12.51-1.47,3.31-2.07,3.51-4.59,4.36l-.21.07c-1.07.36-1.55,1.06-1.55,1.59,0,1,1.33,1,1.77,1s1,0,1.76-.09c1.23-.09,2.76-.19,4-.19s2.18.06,3,.11c.55,0,1,.06,1.4.06,1.29,0,2-.46,2-1.22s-1-1.24-1.85-1.48c-2.35-.73-2.35-1.52-2.35-1.9,0-1.25,1.34-5.74,2.82-9.45a.72.72,0,0,1,.22-.19c1.05-.15,5.41-.21,9-.21,1.19,0,1.4.19,1.41.2l.53,1.5a65.76,65.76,0,0,1,2.55,7.91c.21,1.12.34,1.79-1.83,2.24-1.27.21-1.72.88-1.72,1.38s.28,1.16,2.21,1.16c.66,0,1.18,0,1.74,0S53.34,108.05,54.27,108.05Z" transform="translate(-0.5 -0.5)"/><path d="M94,1.5A92.45,92.45,0,1,1,1.5,94,92.55,92.55,0,0,1,94,1.5M64.29,73a3.13,3.13,0,0,1,1,1.27c.09.86.26,8.54.26,14.06,0,6.07-.09,14.51-.33,18.32v.06c0,1.19.67,1.72,1.33,1.72a2.8,2.8,0,0,0,1.11-.27,1,1,0,0,1,.39-.11,32.72,32.72,0,0,0,7.36,1.16,13.67,13.67,0,0,0,8.14-2.7A13.25,13.25,0,0,0,88.78,96a11.67,11.67,0,0,0-4-9.11,11.5,11.5,0,0,0-7.52-2.69,14,14,0,0,0-5.73,1.4c0-1.12,0-2.74,0-3.5,0-3.4.2-7.39.36-10.6,0-1,.1-1.87.14-2.74A1.9,1.9,0,0,0,70.39,67a5,5,0,0,0-1.9.8,17,17,0,0,1-3,1.17l-1.36.46a2.66,2.66,0,0,0-1.35,1.72c0,.76.5,1.12,1.26,1.67l.23.17M27.14,108.83c.36,0,1,0,1.8-.1,1.22-.08,2.74-.18,4-.18s2.16.06,2.94.11c.55,0,1,.06,1.43.06,2.37,0,2.55-1.32,2.55-1.72,0-1.31-1.6-1.78-2.19-2-2-.63-2-1.21-2-1.43,0-1.05,1.19-5.25,2.74-9.16,1.15-.13,5.25-.19,8.83-.19a5.29,5.29,0,0,1,1,.07l.47,1.3a66.41,66.41,0,0,1,2.53,7.85c.2,1,.25,1.29-1.4,1.64s-2.16,1.17-2.16,1.87c0,.5.26,1.66,2.71,1.66.67,0,1.2,0,1.76,0s1.26-.06,2.17-.06c1.28,0,2.62.08,3.92.15,1.12.07,2.18.13,3.06.13,2.29,0,2.77-.94,2.77-1.72,0-1.26-1.42-1.71-2-1.9h-.06c-2.08-.51-2.78-.68-4.52-5-.9-2.18-5.07-13.17-8-21.28l-.59-1.62c-.79-2.15-1.48-4-1.82-5.18v-.06c-.34-.94-.76-2.1-1.83-2.1a2.11,2.11,0,0,0-1.56,1l-.08.09,0,.06,0,.06c-.27.43-.65,1.08-1,1.62l-.37.62,0,0,0,0a7.31,7.31,0,0,0-.44,1.07c0,.1-.06.21-.1.32a8.15,8.15,0,0,1-.37,1.06c-1.1,2.65-3.07,7.75-5,12.68-2.09,5.41-4.26,11-4.92,12.48-1.39,3.11-1.84,3.26-4.3,4.1l-.2.07a2.41,2.41,0,0,0-1.9,2.06c0,.7.39,1.55,2.27,1.55M147.3,90c0,1.13-.06,3.41-.1,5.61-.06,2.59-.12,5.27-.12,6.32a7.49,7.49,0,0,0,.86,4.17,6.8,6.8,0,0,0,5.74,3.09,9.31,9.31,0,0,0,6.63-2.73,3.26,3.26,0,0,0,1.07-2.09,1.47,1.47,0,0,0-1.34-1.61,2.53,2.53,0,0,0-1.34.47,5.07,5.07,0,0,1-2.2.69,3.68,3.68,0,0,1-2.69-.78,2.45,2.45,0,0,1-.63-2c0-2.55,0-9.08.09-11.29h5.56c1.48,0,2.44-.63,2.44-1.61a9.35,9.35,0,0,0-.18-2.26c-.13-.83-1.22-1.28-1.6-1.28l-1.37,0c-1.44.06-3.7.14-4.88.17v-2a2,2,0,0,0-1.78-1.61c-.69,0-1.14.53-2,1.58a31,31,0,0,1-3.67,3.18l-.62.5,0,0,0,0a1.91,1.91,0,0,0-.63,1.32c0,.94,1.1,1.42,1.43,1.55h.06a7.51,7.51,0,0,1,1.39.51m-44,19.19a12.14,12.14,0,0,0,7.44-2.39A12.85,12.85,0,0,0,116,96.48a12.07,12.07,0,0,0-12.08-12.3,13.48,13.48,0,0,0-8.84,3.28,11.74,11.74,0,0,0-4.23,9.41,13.11,13.11,0,0,0,4.46,9.23,13,13,0,0,0,8,3.12m30.91-20.06a2.08,2.08,0,0,1,.32.4L134.4,102a2.94,2.94,0,0,1-.49.72,5.8,5.8,0,0,1-3.55,1.69,4.2,4.2,0,0,1-3.18-.92,3,3,0,0,1-1-2.29c0-1,0-3.35.08-5.83.06-3.7.12-7.9.09-9,0-.77-.5-1.83-1.45-1.83a9.35,9.35,0,0,0-1.05.12c-1.31.17-3.75.49-4.81.49-1.22,0-1.95.76-1.95,1.5,0,1.2,1.16,1.71,1.62,1.92l.33.13c.85.33,1.08.44,1.1,1.14.11,2.92.11,9.07.11,13.14a6.54,6.54,0,0,0,.93,3.15,6.68,6.68,0,0,0,5.72,3.06,10.74,10.74,0,0,0,4.07-.73,27.72,27.72,0,0,0,3.32-2,7.72,7.72,0,0,0-.09.92,1.76,1.76,0,0,0,1.56,1.78,17.37,17.37,0,0,0,2.19-.53l.05,0a36.42,36.42,0,0,1,4.8-1,1.79,1.79,0,0,0,1.54-1.55V106l-.05-.15c-.22-.65-.71-1.74-1.61-1.74-.44,0-1.15.09-1.83.17l-.6.08c0-4.6.44-16.52.55-18.06v-.07c0-.91-.48-1.83-1.39-1.83a5.45,5.45,0,0,0-1.58.25,26.06,26.06,0,0,1-5.67.58c-.74,0-2.27.36-2.27,1.5,0,1,.94,1.59,1.83,1.84h.05c.39.08,1.3.33,2,.52l.36.1M94,.5A93.45,93.45,0,1,0,187.39,94,93.45,93.45,0,0,0,94,.5ZM66.57,107.44c-.22,0-.33-.33-.33-.72.27-4.32.33-13.84.33-18.38,0-5.26-.17-13.46-.28-14.23a3.69,3.69,0,0,0-1.38-1.89c-.83-.6-1.11-.77-1.11-1a2.83,2.83,0,0,1,.66-.77A31,31,0,0,0,69,68.68,5.09,5.09,0,0,1,70.39,68c.22,0,.61.49.61.72-.17,3.65-.5,8.91-.5,13.34,0,1.44,0,4.15.11,4.76,0,.1.21.24.3.24l0,0a12.69,12.69,0,0,1,6.32-1.88,10.48,10.48,0,0,1,6.86,2.44A10.77,10.77,0,0,1,87.78,96,12.18,12.18,0,0,1,83,105.73a12.7,12.7,0,0,1-7.53,2.49,31.3,31.3,0,0,1-7-1.11.68.68,0,0,0-.31-.06,2.05,2.05,0,0,0-.86.23,1.87,1.87,0,0,1-.66.16Zm-39.43.39c-1,0-1.27-.22-1.27-.55s.38-.83,1.21-1.11c2.77-.94,3.49-1.11,5.1-4.71,1.27-2.82,7.59-19.55,9.91-25.19a12.1,12.1,0,0,0,.5-1.44,8,8,0,0,1,.39-1c.33-.55.94-1.6,1.33-2.21.38-.44.61-.72.88-.72s.45.22.89,1.44c.44,1.49,1.38,4,2.43,6.87,2.88,8.08,7,19,8,21.32,1.83,4.54,2.71,5,5.2,5.59.89.28,1.33.55,1.33.94s-.39.72-1.77.72c-1.83,0-4.54-.28-7-.28-1.77,0-2.54.11-3.93.11s-1.71-.38-1.71-.66.33-.72,1.32-.89c2.66-.55,2.44-1.66,2.22-2.82a83.12,83.12,0,0,0-3.1-9.47c-.06-.22-.28-.55-1.88-.55-3,0-7.92,0-9.09.22-.22,0-.49.27-.6.44-1.44,3.6-2.88,8.31-2.88,9.69,0,.67.22,1.61,2.71,2.38.94.28,1.49.61,1.49,1,0,.55-.83.72-1.55.72-.94,0-2.32-.17-4.37-.17s-4.93.28-5.76.28Zm126.54.39a5.86,5.86,0,0,1-4.88-2.61,6.52,6.52,0,0,1-.72-3.65c0-2,.22-10.35.22-12.29,0-.39-1-.78-2.1-1.11-.44-.17-.78-.44-.78-.61a1,1,0,0,1,.34-.61,37.61,37.61,0,0,0,4.43-3.82c.66-.77,1.05-1.22,1.27-1.22a1.29,1.29,0,0,1,.78.61v2.6a.53.53,0,0,0,.44.45c1.22,0,6.59-.22,6.81-.22,0,0,.61.27.61.44h0a18.9,18.9,0,0,1,.17,2.11c0,.5-1.06.61-1.44.61h-6a.55.55,0,0,0-.5.39c0,1.11-.11,9.25-.11,11.9a3.42,3.42,0,0,0,.94,2.72,4.66,4.66,0,0,0,3.38,1,6.06,6.06,0,0,0,2.71-.83c.5-.28.61-.33.83-.33.06,0,.34.11.34.61a2.36,2.36,0,0,1-.78,1.38,8.29,8.29,0,0,1-5.92,2.44Zm-50.4,0a12.09,12.09,0,0,1-7.36-2.88,12.27,12.27,0,0,1-4.1-8.47,10.67,10.67,0,0,1,3.88-8.64,12.34,12.34,0,0,1,8.19-3A11.12,11.12,0,0,1,115,96.48a11.92,11.92,0,0,1-4.82,9.52,11.06,11.06,0,0,1-6.87,2.22Zm27.08-2.77a6.74,6.74,0,0,0,4.21-1.94,3.31,3.31,0,0,0,.83-1.33l.11-12.73a2,2,0,0,0-.94-1.22c-.83-.22-2-.56-2.55-.67s-1.1-.44-1.1-.88c0-.22.71-.5,1.27-.5a27.53,27.53,0,0,0,5.92-.61,4.3,4.3,0,0,1,1.33-.22c.28,0,.39.61.39.83-.11,1.55-.55,13.84-.55,18.38,0,.11.22.78.66.78s2.1-.28,2.77-.28c.22,0,.61.89.66,1a.86.86,0,0,1-.61.56,35.52,35.52,0,0,0-5,1,18.69,18.69,0,0,1-1.94.5c-.22,0-.56-.39-.56-.78s.17-1.38.23-2.32c0-.24-.13-.4-.24-.4h0a38,38,0,0,1-4.54,2.82,9.61,9.61,0,0,1-3.71.67,5.63,5.63,0,0,1-4.88-2.61,5.56,5.56,0,0,1-.77-2.6c0-4,0-10.24-.11-13.18-.06-1.55-1.11-1.77-2-2.16-.5-.22-1-.5-1-1,0-.17.28-.5.95-.5,1.55,0,5.64-.61,5.86-.61s.45.5.45.83c.05,1.88-.17,12.35-.17,14.84a4,4,0,0,0,1.39,3.1,5.12,5.12,0,0,0,3.76,1.11Z" transform="translate(-0.5 -0.5)"/><path d="M39.32,90.43c.59-2,3.19-9,4-11.24.81,1.94,3,8.15,4,11.11-1.29.09-3.43.1-5.34.11Z" transform="translate(-0.5 -0.5)"/><path d="M43.35,80.58c.88,2.31,2.35,6.5,3.28,9.26-1.26,0-3.05.06-4.66.07H40c.65-2,2.16-6.14,3.35-9.34m-.05-2.42c-.07,0-.13.08-.21.27-1,2.65-3.88,10.41-4.32,12.12a.28.28,0,0,0,.28.39c2.21-.06,6.81,0,8.63-.17a.45.45,0,0,0,.17-.44c-.94-2.82-3.82-11.13-4.32-11.9-.09-.18-.16-.27-.23-.27Z" transform="translate(-0.5 -0.5)"/></g></g></svg>