<svg xmlns="http://www.w3.org/2000/svg" viewBox="0 0 135.29 135.29"><g id="Layer_2" data-name="Layer 2"><g id="Contact_Boolean" data-name="Contact Boolean"><path d="M48.38,75.24c-1.36,0-3.08-1-3.85-3.35a9.52,9.52,0,0,1-.37-2.79,5.8,5.8,0,0,1,1.47-3.89,3,3,0,0,1,1.82-.83,3.68,3.68,0,0,1,2.42,1.14A7.38,7.38,0,0,1,50,74.3,2.56,2.56,0,0,1,48.38,75.24Z" transform="translate(-0.5 -0.5)"/><path d="M47.45,64.88a3.2,3.2,0,0,1,2,1,6.91,6.91,0,0,1,.22,8.1c-.78.78-1.27.81-1.32.81-1.18,0-2.68-.93-3.37-3a9,9,0,0,1-.35-2.65,5.23,5.23,0,0,1,1.28-3.5,2.62,2.62,0,0,1,1.51-.72m0-1a3.5,3.5,0,0,0-2.16,1,6.22,6.22,0,0,0-1.63,4.25,10.12,10.12,0,0,0,.4,3c.83,2.49,2.72,3.69,4.32,3.69a3.06,3.06,0,0,0,2-1.1,7.86,7.86,0,0,0-.16-9.46,4.18,4.18,0,0,0-2.79-1.3Z" transform="translate(-0.5 -0.5)"/><path d="M88.78,74.41c-.31,0-1.59-.27-1.59-1.5a.81.81,0,0,1,.45-.85,10.74,10.74,0,0,1,2.9-.89c0,.67,0,1.61-.06,2.3a2.32,2.32,0,0,1-.22.49A3.83,3.83,0,0,1,88.78,74.41Z" transform="translate(-0.5 -0.5)"/><path d="M90,71.76c0,.53,0,1.13-.06,1.6a1,1,0,0,1-.07.2,3.08,3.08,0,0,1-1.13.35s-1.09-.09-1.09-1c0-.24,0-.27.17-.39A12.25,12.25,0,0,1,90,71.76m.73-1.1a10.1,10.1,0,0,0-3.42,1,1.29,1.29,0,0,0-.66,1.26,2.08,2.08,0,0,0,2.09,2,4.38,4.38,0,0,0,1.8-.57,1.92,1.92,0,0,0,.39-.83c.07-.8.07-1.92.07-2.59a.31.31,0,0,0-.27-.26Z" transform="translate(-0.5 -0.5)"/><path d="M68.14,135.29a67.15,67.15,0,1,1,67.15-67.15A67.22,67.22,0,0,1,68.14,135.29ZM30.28,53.85A14.16,14.16,0,0,0,21,57,11.61,11.61,0,0,0,20,73.34a13.34,13.34,0,0,0,9.81,4.06,20.7,20.7,0,0,0,6.24-1,3.11,3.11,0,0,0,1.29-1.12,12.45,12.45,0,0,0,1.37-3.5,2,2,0,0,0-.24-1.39.73.73,0,0,0-.56-.26c-.44,0-.67.36-1.12,1.1a7.07,7.07,0,0,1-2.89,3,7.19,7.19,0,0,1-3.39.84,9.06,9.06,0,0,1-7.95-5,11.68,11.68,0,0,1-1.11-5.26c0-4.33,2.89-8.93,8.26-8.93a7.81,7.81,0,0,1,5,1.62,4.83,4.83,0,0,1,1.17,2.22c.29.86.6,1.24,1,1.24a.85.85,0,0,0,.61-.28A1.82,1.82,0,0,0,38,59.38l-.06-.63c-.07-.73-.17-1.73-.17-2.24,0-1.18-.65-1.49-1-1.49l-.84-.24a16.17,16.17,0,0,0-1.6-.39A18.51,18.51,0,0,0,30.28,53.85Zm81.11,11.88c0,.66,0,2-.07,3.43,0,1.57-.06,3.16-.06,3.79a4.31,4.31,0,0,0,.51,2.46,4,4,0,0,0,3.34,1.79,5.48,5.48,0,0,0,3.9-1.6,1.94,1.94,0,0,0,.62-1.19.79.79,0,0,0-.7-.87,1.41,1.41,0,0,0-.74.26,3.16,3.16,0,0,1-1.39.44,2.28,2.28,0,0,1-1.69-.5,1.57,1.57,0,0,1-.4-1.26c0-1.58,0-5.7.06-6.87h3.43c.63,0,1.36-.23,1.36-.86,0-1.22-.11-1.6-.31-1.72a1.21,1.21,0,0,0-.65-.31l-.82,0c-.91,0-2.35.09-3,.1V61.53c0-.41-.59-.87-1-.87s-.61.28-1.14.91a19.13,19.13,0,0,1-2.21,1.92l-.38.3a1.08,1.08,0,0,0-.39.76c0,.5.61.76.79.83A4.81,4.81,0,0,1,111.39,65.73ZM90.75,75.59A2.68,2.68,0,0,0,93.2,77.2c1.76,0,3.49-1.62,3.49-2.56a1,1,0,0,0-.25-.69.56.56,0,0,0-.48-.27h-.15l-.2.11a3.66,3.66,0,0,1-1,.42c-.21,0-.79-.12-.79-1.16,0-.13,0-.71,0-1.47,0-1.44.1-3.53.1-4.38a4.61,4.61,0,0,0-.76-3,3.84,3.84,0,0,0-3.39-1.77,7.55,7.55,0,0,0-3.38,1.35c-1.25.82-2.7,2-2.7,3.33a1,1,0,0,0,.9.93,10.27,10.27,0,0,0,2.47-1.2,1.3,1.3,0,0,0,.39-.76,2.42,2.42,0,0,1,.05-1,1.88,1.88,0,0,1,1-.26,2.1,2.1,0,0,1,2.09,1.73c0,.45,0,2.19-.06,2.6a2.32,2.32,0,0,1-.62.24l-1.46.43c-1.25.36-2.15.62-2.46.75l-.26.11a3.08,3.08,0,0,0-1.28.88,3.34,3.34,0,0,0-.73,2c0,1.92,1.3,3.59,2.79,3.59a6.26,6.26,0,0,0,1.5-.23A13,13,0,0,0,90.75,75.59ZM74.84,65.73c0,.66,0,2-.07,3.43,0,1.57-.07,3.16-.07,3.79a4.39,4.39,0,0,0,.51,2.46,4,4,0,0,0,3.35,1.79,5.49,5.49,0,0,0,3.9-1.6,1.93,1.93,0,0,0,.61-1.19.78.78,0,0,0-.69-.87,1.47,1.47,0,0,0-.75.26,3.08,3.08,0,0,1-1.38.44,2.27,2.27,0,0,1-1.69-.5,1.57,1.57,0,0,1-.4-1.26c0-1.58,0-5.7.06-6.87h3.42c.63,0,1.37-.23,1.37-.86,0-1.22-.11-1.6-.32-1.72a1.18,1.18,0,0,0-.65-.31l-.81,0c-.91,0-2.35.09-3,.1V61.53a1.11,1.11,0,0,0-1-.87c-.37,0-.61.28-1.14.91a20,20,0,0,1-2.21,1.92l-.38.3a1.08,1.08,0,0,0-.39.76c0,.5.6.76.79.83A4.81,4.81,0,0,1,74.84,65.73ZM48.08,62.39a7.94,7.94,0,0,0-5.24,2,6.91,6.91,0,0,0-2.5,5.55A7.91,7.91,0,0,0,43,75.36a7.67,7.67,0,0,0,4.73,1.84,7.07,7.07,0,0,0,4.41-1.42,7.69,7.69,0,0,0,3.1-6.12A7.13,7.13,0,0,0,48.08,62.39Zm56.61.1A9.79,9.79,0,0,0,100,64a7.41,7.41,0,0,0-3.42,6.15,8.69,8.69,0,0,0,1.1,4.15,6.4,6.4,0,0,0,5.34,2.9,7.19,7.19,0,0,0,5.15-2.23,1.82,1.82,0,0,0,.56-1.3.68.68,0,0,0-.72-.66,1.19,1.19,0,0,0-.7.26,4.44,4.44,0,0,1-2.66.9,4.34,4.34,0,0,1-3.76-2,5.74,5.74,0,0,1-.79-3.06,5.22,5.22,0,0,1,1.26-3.49,2.83,2.83,0,0,1,1.69-1,3.42,3.42,0,0,1,2.21,1l.29.21a4.15,4.15,0,0,0,1.59.72,2.46,2.46,0,0,0,1.59-1.82,2,2,0,0,0-.71-1.41A6.48,6.48,0,0,0,104.69,62.49ZM61,62a2.32,2.32,0,0,0-1.06.43,9.23,9.23,0,0,1-2.13.92c-.35.15-.93.62-.93,1.14,0,.37.32.61.84,1s.58.67.58.88c0,3.34-.06,6.24-.16,7.22s-.18,1.17-1,1.43-1.05.66-1.05,1,.09.93,1.36.93c.24,0,.54,0,.9,0s1.13-.06,1.86-.06l1.26,0h.76c.78,0,1.33-.37,1.33-.89s-.36-.81-.95-1c-.85-.24-.86-.36-.88-.59s0-4.19,0-7.93a1,1,0,0,1,.2-.45,3.57,3.57,0,0,1,2.59-.91,4.15,4.15,0,0,1,1.83.53,2.93,2.93,0,0,1,.79,2.06c0,.87,0,4.94-.1,6s-.16,1-.7,1.23c-.72.23-1.09.58-1.09,1s.65.9,1.26.9l.82,0c.45,0,1,0,1.47,0s.92,0,1.33,0l1.13,0c.94,0,1.5-.33,1.5-.87,0-.73-.82-.94-1.21-1-.79-.22-.84-.6-.86-.74,0-.41-.09-5.39-.09-6a7,7,0,0,0-1.28-4.37,4.34,4.34,0,0,0-3.41-1.44,8.61,8.61,0,0,0-4.07,1.49c0-.31.06-.64.06-.92S61.57,62,61,62Z" transform="translate(-0.5 -0.5)"/><path d="M68.14,1.5A66.65,66.65,0,1,1,1.5,68.14,66.72,66.72,0,0,1,68.14,1.5M29.85,77.9a20.57,20.57,0,0,0,6.44-1h.05a3.67,3.67,0,0,0,1.46-1.28,12.43,12.43,0,0,0,1.44-3.68,2.41,2.41,0,0,0-.35-1.8,1.22,1.22,0,0,0-.94-.44c-.72,0-1.05.53-1.56,1.36a6.51,6.51,0,0,1-2.73,2.86,6.68,6.68,0,0,1-3.11.76A8.57,8.57,0,0,1,23,69.88a11.24,11.24,0,0,1-1.05-5c0-4.09,2.72-8.43,7.76-8.43a7.3,7.3,0,0,1,4.7,1.51,4.45,4.45,0,0,1,1,2V60c.14.42.51,1.55,1.48,1.55a1.38,1.38,0,0,0,1-.43,2.34,2.34,0,0,0,.52-1.76c0-.17,0-.38-.06-.61-.07-.72-.17-1.7-.17-2.19,0-1.37-.79-1.93-1.38-2A8.19,8.19,0,0,1,36,54.3c-.52-.14-1.1-.31-1.63-.4a19,19,0,0,0-4.11-.55,14.68,14.68,0,0,0-9.64,3.29,12,12,0,0,0-4,8.74,12.15,12.15,0,0,0,3,8.28A13.88,13.88,0,0,0,29.85,77.9M109.2,64.25a2.4,2.4,0,0,0-.83-1.3,7,7,0,0,0-3.68-1,10.11,10.11,0,0,0-4.91,1.56,7.89,7.89,0,0,0-3.66,6.57,9.61,9.61,0,0,0,.73,3.53,1.1,1.1,0,0,0-.89-.47,1.2,1.2,0,0,0-.66.22,3.19,3.19,0,0,1-.73.3c-.11,0-.27-.12-.27-.65,0-.13,0-.7,0-1.45,0-1.5.1-3.54.1-4.4a5.11,5.11,0,0,0-.84-3.32,4.37,4.37,0,0,0-3.81-2,7.82,7.82,0,0,0-3.64,1.42c-1.45,1-2.94,2.16-2.94,3.76a1.47,1.47,0,0,0,1.4,1.43,9.58,9.58,0,0,0,2.78-1.31l0,0,0,0A1.7,1.7,0,0,0,88,66v-.1a2.3,2.3,0,0,1,0-.53,1.59,1.59,0,0,1,.6-.1,1.62,1.62,0,0,1,1.59,1.23c0,.36,0,1.63,0,2.27l-.29.1-1.45.42c-1.3.38-2.18.63-2.51.76h0l-.22.11a3.45,3.45,0,0,0-1.47,1,3.87,3.87,0,0,0-.84,2.26,1.16,1.16,0,0,0-.89-.45,2,2,0,0,0-1,.34,2.7,2.7,0,0,1-1.11.36,1.86,1.86,0,0,1-1.34-.36c-.12-.12-.25-.29-.25-.9,0-1.4,0-4.78,0-6.37h2.93c1.12,0,1.87-.55,1.87-1.36a5.52,5.52,0,0,0-.13-1.5,1.09,1.09,0,0,0-.15-.35l-.14-.18a1.68,1.68,0,0,0-1-.5l-.83,0-2.52.09v-.81a1.58,1.58,0,0,0-1.46-1.37c-.6,0-1,.41-1.54,1.09a16.79,16.79,0,0,1-2.13,1.85l-.38.3,0,0,0,0a1.36,1.36,0,0,0,.62,2.38h.07a5.55,5.55,0,0,1,.54.18c0,.73,0,1.93-.06,3.1,0,1.56-.07,3.16-.07,3.8a4.87,4.87,0,0,0,.58,2.7,4.49,4.49,0,0,0,3.78,2A6,6,0,0,0,82.82,76a2.9,2.9,0,0,0,.66-1,3.51,3.51,0,0,0,3.08,2.69,6.89,6.89,0,0,0,1.64-.25,13.23,13.23,0,0,0,2.37-1.1A3.21,3.21,0,0,0,93.2,77.7c2,0,4-1.78,4-3.06a2,2,0,0,0,0-.35l.14.24v0l0,0a7,7,0,0,0,5.74,3.1,7.62,7.62,0,0,0,5.51-2.38,2.35,2.35,0,0,0,.7-1.65,1.18,1.18,0,0,0-1.22-1.16,1.69,1.69,0,0,0-1,.34,3.91,3.91,0,0,1-2.38.82,3.81,3.81,0,0,1-3.33-1.74v0l0,0a5.36,5.36,0,0,1-.69-2.76A4.63,4.63,0,0,1,101.78,66l0,0v0a2.37,2.37,0,0,1,1.28-.75c.67,0,1,.21,1.91.89l.31.23a4.27,4.27,0,0,0,1.87.8,2.89,2.89,0,0,0,2.07-2.1,1.74,1.74,0,0,0,1,.88h.06c.25.07.42.13.55.18,0,.73,0,1.93-.06,3.1,0,1.56-.07,3.16-.07,3.8a4.86,4.86,0,0,0,.57,2.7,4.51,4.51,0,0,0,3.78,2A6,6,0,0,0,119.37,76a2.38,2.38,0,0,0,.76-1.54,1.27,1.27,0,0,0-1.2-1.37,1.91,1.91,0,0,0-1,.34,2.74,2.74,0,0,1-1.12.36,1.88,1.88,0,0,1-1.34-.36c-.12-.12-.25-.29-.25-.9,0-1.4,0-4.78.05-6.37h2.94c1.11,0,1.86-.55,1.86-1.36a6,6,0,0,0-.12-1.5,1.37,1.37,0,0,0-.15-.35,1.19,1.19,0,0,0-.15-.18,1.66,1.66,0,0,0-1-.5l-.84,0-2.51.09v-.81a1.59,1.59,0,0,0-1.47-1.37c-.6,0-.94.41-1.53,1.09a18.37,18.37,0,0,1-2.13,1.85l-.38.3,0,0,0,0a1.59,1.59,0,0,0-.46.78M57.43,65.84c.35.29.4.42.4.42h0v.08c0,3.33-.06,6.21-.16,7.19-.06.79-.06.79-.66,1-1.25.34-1.43,1.06-1.43,1.46,0,.66.48,1.43,1.86,1.43.24,0,.55,0,.93,0s1.12-.06,1.83-.06l1.25,0h.77c1.08,0,1.83-.57,1.83-1.39a1.63,1.63,0,0,0-1.33-1.47,3,3,0,0,1-.5-.17c0-.51,0-4.39,0-7.81a.71.71,0,0,1,.07-.16,3.12,3.12,0,0,1,2.22-.75A3.6,3.6,0,0,1,66,66a2.48,2.48,0,0,1,.6,1.66c0,1.06,0,5-.1,6a4,4,0,0,1-.07.64.93.93,0,0,1-.27.14c-1.2.39-1.45,1-1.45,1.51a1.59,1.59,0,0,0,1.76,1.4l.84,0c.45,0,1,0,1.45,0s.9,0,1.31,0l1.15,0c1.47,0,2-.71,2-1.37,0-1.12-1.19-1.43-1.56-1.53s-.49-.24-.51-.3c0-.61-.09-5.24-.09-5.94a7.42,7.42,0,0,0-1.41-4.71,4.88,4.88,0,0,0-3.78-1.6A7.54,7.54,0,0,0,62.36,63v0c0-.54-.45-1.5-1.33-1.5a2.67,2.67,0,0,0-1.32.51l0,0,0,0a10,10,0,0,1-2,.83h0l0,0a2,2,0,0,0-1.2,1.58c0,.64.49,1,1,1.36M47.71,77.7a7.72,7.72,0,0,0,4.69-1.5,8.14,8.14,0,0,0,3.32-6.54,7.64,7.64,0,0,0-7.64-7.77A8.45,8.45,0,0,0,42.52,64a7.42,7.42,0,0,0-2.68,5.94,8.31,8.31,0,0,0,2.81,5.85,8.2,8.2,0,0,0,5.06,2M68.14.5a67.65,67.65,0,1,0,67.65,67.64A67.65,67.65,0,0,0,68.14.5ZM29.85,76.9A12.87,12.87,0,0,1,20.42,73a11.21,11.21,0,0,1-2.79-7.63,11.06,11.06,0,0,1,3.65-8,13.69,13.69,0,0,1,9-3.06,19.07,19.07,0,0,1,3.92.53c.86.14,2,.57,2.52.64.17,0,.5.23.5,1s.17,2.16.23,2.89-.23,1.1-.49,1.1-.37-.37-.53-.87a5.1,5.1,0,0,0-1.37-2.49,8.3,8.3,0,0,0-5.31-1.72c-5.34,0-8.76,4.41-8.76,9.43a12,12,0,0,0,1.16,5.47,9.59,9.59,0,0,0,8.4,5.32,7.59,7.59,0,0,0,3.62-.9,7.45,7.45,0,0,0,3.09-3.22c.43-.7.56-.86.69-.86.33,0,.37.73.3,1.09a12,12,0,0,1-1.33,3.36,2.68,2.68,0,0,1-1,.86,20.13,20.13,0,0,1-6,.93Zm85.26-.2a3.5,3.5,0,0,1-2.92-1.56,3.89,3.89,0,0,1-.43-2.19c0-1.23.13-6.21.13-7.37,0-.24-.6-.47-1.26-.67-.27-.1-.47-.26-.47-.36a.57.57,0,0,1,.2-.37A23.58,23.58,0,0,0,113,61.89c.4-.46.63-.73.76-.73a.77.77,0,0,1,.47.37v1.56a.31.31,0,0,0,.26.26c.73,0,3.95-.13,4.09-.13s.36.16.36.26h0a12.1,12.1,0,0,1,.1,1.27c0,.29-.63.36-.86.36h-3.62a.33.33,0,0,0-.3.23c0,.67-.07,5.55-.07,7.14a2,2,0,0,0,.57,1.63,2.8,2.8,0,0,0,2,.63,3.64,3.64,0,0,0,1.63-.5c.3-.16.37-.2.5-.2s.2.07.2.37a1.39,1.39,0,0,1-.47.83,5,5,0,0,1-3.55,1.46Zm-36.55,0a3.52,3.52,0,0,1-2.93-1.56A4,4,0,0,1,75.2,73c0-1.23.14-6.21.14-7.37,0-.24-.6-.47-1.27-.67-.26-.1-.46-.26-.46-.36a.57.57,0,0,1,.2-.37,22.41,22.41,0,0,0,2.65-2.29c.4-.46.64-.73.77-.73a.77.77,0,0,1,.46.37v1.56a.32.32,0,0,0,.27.26c.73,0,4-.13,4.08-.13s.37.16.37.26h0a12.1,12.1,0,0,1,.1,1.27c0,.29-.63.36-.87.36H78a.33.33,0,0,0-.3.23c0,.67-.07,5.55-.07,7.14a2.08,2.08,0,0,0,.56,1.63,2.82,2.82,0,0,0,2,.63,3.67,3.67,0,0,0,1.63-.5c.3-.16.36-.2.5-.2s.19.07.19.37a1.43,1.43,0,0,1-.46.83,5,5,0,0,1-3.55,1.46Zm-21.12-.3c-.5,0-.86-.13-.86-.43s.33-.4.69-.5c1.1-.33,1.3-.66,1.4-1.86.1-1,.16-3.88.16-7.27,0-.37-.06-.7-.79-1.3-.43-.29-.63-.46-.63-.56s.36-.56.59-.66a11.75,11.75,0,0,0,2.23-1,2.14,2.14,0,0,1,.8-.36c.16,0,.33.36.33.5,0,.56-.13,1.36-.13,1.66,0,.09.05.11.1.11h.09a9.17,9.17,0,0,1,4.45-1.83,3.88,3.88,0,0,1,3,1.26,6.53,6.53,0,0,1,1.16,4c0,.63.06,5.58.1,6s.4.92,1.23,1.16c.63.16.83.33.83.56s-.47.37-1,.37c-.76,0-1.53-.07-2.46-.07s-1.86.07-2.29.07-.76-.14-.76-.4.36-.43.76-.57c.8-.29,1-.56,1-1.66s.1-5.11.1-6.07a3.33,3.33,0,0,0-1-2.46,4.4,4.4,0,0,0-2.12-.63,4.16,4.16,0,0,0-3,1.06,1.49,1.49,0,0,0-.33.8c0,.43,0,7.57,0,8s.16.73,1.22,1c.34.1.6.3.6.5s-.36.39-.83.39-1.33,0-2,0c-1.23,0-2.2.1-2.76.1ZM84.6,67.5a.49.49,0,0,1-.4-.43c0-1,.93-1.89,2.49-2.92a7.07,7.07,0,0,1,3.09-1.26,3.36,3.36,0,0,1,3,1.56,4.2,4.2,0,0,1,.66,2.75c0,1.3-.13,5.48-.13,5.85,0,1.52,1.06,1.66,1.33,1.66a3.91,3.91,0,0,0,1.26-.5l.07,0c.05,0,.08.06.13.13a.52.52,0,0,1,.1.33c0,.63-1.5,2.06-3,2.06A2.23,2.23,0,0,1,91.07,75a.25.25,0,0,0-.17-.14h0a12.85,12.85,0,0,1-3,1.52,5.55,5.55,0,0,1-1.33.2c-1.16,0-2.29-1.43-2.29-3.09a2.86,2.86,0,0,1,.63-1.69A3.2,3.2,0,0,1,86.23,71c.49-.2,3.15-.93,3.88-1.16s1-.4,1-.6.07-2.32.07-2.72a2.58,2.58,0,0,0-2.59-2.23,2.25,2.25,0,0,0-1.36.37c-.2.1-.3.7-.23,1.36a.89.89,0,0,1-.2.37A12.85,12.85,0,0,1,84.6,67.5ZM47.71,76.7A7.22,7.22,0,0,1,43.3,75a7.33,7.33,0,0,1-2.46-5.08,6.43,6.43,0,0,1,2.32-5.18,7.47,7.47,0,0,1,4.92-1.82,6.66,6.66,0,0,1,6.64,6.77,7.14,7.14,0,0,1-2.89,5.71,6.65,6.65,0,0,1-4.12,1.33Zm55.35,0A6,6,0,0,1,98.14,74a8.25,8.25,0,0,1-1-3.89,6.89,6.89,0,0,1,3.22-5.74A9.1,9.1,0,0,1,104.69,63a6,6,0,0,1,3.08.76,1.47,1.47,0,0,1,.5,1c0,.53-1,1.32-1.09,1.32a3.51,3.51,0,0,1-1.3-.63c-1.09-.79-1.66-1.29-2.79-1.29A3.21,3.21,0,0,0,101,65.28a5.69,5.69,0,0,0-1.39,3.82,6.27,6.27,0,0,0,.86,3.32,5,5,0,0,0,7.14,1.22.8.8,0,0,1,.41-.16c.14,0,.22.07.22.16a1.36,1.36,0,0,1-.43,1,6.67,6.67,0,0,1-4.78,2.06Z" transform="translate(-0.5 -0.5)"/></g></g></svg>