<svg xmlns="http://www.w3.org/2000/svg" viewBox="0 0 130.27 130.27"><g id="Layer_2" data-name="Layer 2"><g id="Games_Boolean" data-name="Games Boolean"><path d="M49.31,73.09c-.39,0-2-.33-2-1.85a1,1,0,0,1,.57-1.08,12,12,0,0,1,3.57-1.08c0,.79,0,2-.08,2.82a2.18,2.18,0,0,1-.27.63A4.58,4.58,0,0,1,49.31,73.09Z" transform="translate(-0.5 -0.5)"/><path d="M51,69.65c0,.69,0,1.51-.07,2.15a2.81,2.81,0,0,1-.13.33,3.73,3.73,0,0,1-1.47.46s-1.47-.1-1.47-1.35c0-.39,0-.45.29-.63a13.67,13.67,0,0,1,2.85-1m.69-1.08a11.93,11.93,0,0,0-4.05,1.18,1.52,1.52,0,0,0-.78,1.49,2.45,2.45,0,0,0,2.47,2.35,5.08,5.08,0,0,0,2.12-.66,2.2,2.2,0,0,0,.47-1C52,71,52,69.67,52,68.88a.38.38,0,0,0-.31-.31Z" transform="translate(-0.5 -0.5)"/><path d="M94.77,63.31c-.68,0-1.29,0-1.76,0A3.7,3.7,0,0,1,96.4,61a2.14,2.14,0,0,1,2.09,1.85c0,.36,0,.48-.83.48Z" transform="translate(-0.5 -0.5)"/><path d="M96.4,61.45A1.67,1.67,0,0,1,98,62.77h-.35l-2.87,0h-.91a3.06,3.06,0,0,1,2.54-1.36m0-1a4.25,4.25,0,0,0-4,2.9c-.08.2.08.43.16.43.51,0,1.28,0,2.17,0l2.89,0c.94,0,1.33-.19,1.33-1a2.63,2.63,0,0,0-2.59-2.35Z" transform="translate(-0.5 -0.5)"/><path d="M65.63,130.27a64.64,64.64,0,1,1,64.64-64.64A64.71,64.71,0,0,1,65.63,130.27ZM30.55,48.8a16,16,0,0,0-10.38,3.66,13.27,13.27,0,0,0-4.6,10.26,13.7,13.7,0,0,0,4.2,10,16,16,0,0,0,10.78,3.71,24.62,24.62,0,0,0,5.55-.73c.94-.26,1.8-.48,2.49-.66l1.08-.28a1.17,1.17,0,0,0,1-1c0-.49-.21-.75-.93-1.14a.93.93,0,0,1-.29-.7,37.53,37.53,0,0,1,.17-4.7c.15-.43.23-.65,1.08-.91s1.26-.66,1.26-1.14-.4-1-1.56-1c-.68,0-1.39,0-2,.09s-1.06.07-1.49.07c-.63,0-1.8,0-2.83-.09-.82,0-1.56-.07-1.88-.07-1.15,0-1.68.55-1.68,1s.64,1.11,1.49,1.17c2.69.18,2.87.76,3.09,1.49,0,.33.1,2.36.1,3.94a4.11,4.11,0,0,1-.62,1.63,8,8,0,0,1-3.24.85,10.56,10.56,0,0,1-9.07-5.17,13.35,13.35,0,0,1-1.69-6.89C20.5,56.65,24,51,30.67,51a7.87,7.87,0,0,1,5.89,2.25A9.42,9.42,0,0,1,38,55.87c.23.58.57,1.23,1.18,1.23s1-.59,1-1.36a17.3,17.3,0,0,0-.34-2.87,12.81,12.81,0,0,1-.21-1.47A1.33,1.33,0,0,0,38.73,50c-.3-.08-.53-.12-.92-.2l-.57-.11-.42-.09A27.37,27.37,0,0,0,30.55,48.8Zm74.33,21.74c-.3,0-.81.17-.81,1.33a9.79,9.79,0,0,0,.66,3.24l0,.07.07,0c.8.67,2.94,1,4.12,1a7.21,7.21,0,0,0,3.58-1A5.57,5.57,0,0,0,115,71c0-2-1-3.47-3.3-4.82-2.69-1.49-3.64-2.37-3.64-3.38a2,2,0,0,1,1.85-1.93c.79,0,1.72.28,2.69,2.34.16.35.51,1,1,1s1-.5,1-1.2c0-.11,0-.39,0-.72,0-.51-.08-1.17-.08-1.6a1.27,1.27,0,0,0-.59-1,7.21,7.21,0,0,0-1.39-.48,9.14,9.14,0,0,0-2.09-.24,6.3,6.3,0,0,0-3.4.9,4.57,4.57,0,0,0-2.4,4,5.34,5.34,0,0,0,2.67,4.39c.92.59,1.27.84,1.8,1.22l.57.41c1.09.67,1.56,1.35,1.56,2.22a2.46,2.46,0,0,1-.72,1.77,2.42,2.42,0,0,1-1.26.48c-1.23,0-2.14-.73-3.13-2.53C105.87,71.21,105.51,70.54,104.88,70.54Zm-53.2,3.73a3.09,3.09,0,0,0,2.85,1.94c2,0,4-1.88,4-2.93a1.07,1.07,0,0,0-.22-.7.66.66,0,0,0-.55-.34h-.15l-.21.11a4.1,4.1,0,0,1-1.24.51c-.22,0-1-.11-1-1.47,0-.14,0-.83,0-1.73.05-1.76.12-4.17.12-5.17a5.45,5.45,0,0,0-.88-3.55,4.46,4.46,0,0,0-3.94-2,8.78,8.78,0,0,0-3.94,1.58c-2.18,1.43-3.15,2.63-3.15,3.86a1.06,1.06,0,0,0,1,1,12.44,12.44,0,0,0,2.86-1.4,1.45,1.45,0,0,0,.42-.83,2.9,2.9,0,0,1,.08-1.21A2.4,2.4,0,0,1,49,61.57,2.57,2.57,0,0,1,51.6,63.7c0,.49,0,2.72-.07,3.13a3,3,0,0,1-.79.32c-.34.11-1,.3-1.74.51-1.23.35-2.51.72-2.9.88l-.3.13a3.54,3.54,0,0,0-1.48,1,3.89,3.89,0,0,0-.85,2.3c0,2.21,1.5,4.15,3.21,4.15a7.48,7.48,0,0,0,1.74-.26A16,16,0,0,0,51.68,74.27ZM96.8,58.93a8.82,8.82,0,0,0-3.2.75,8.91,8.91,0,0,0-5,8.14c0,4.9,3.11,8.31,7.57,8.31a7.19,7.19,0,0,0,6.1-3.16,2.71,2.71,0,0,0,.36-1.22.87.87,0,0,0-.81-1c-.41,0-.71.37-.93.69-.55.81-1.55,1.19-3.15,1.19a5.06,5.06,0,0,1-4-2,7.53,7.53,0,0,1-1.4-4.18,4.82,4.82,0,0,1,.16-1.19c1.94,0,8.09,0,8.8,0a1.29,1.29,0,0,0,1.24-1.17A4.93,4.93,0,0,0,101,60.55,6.18,6.18,0,0,0,96.8,58.93ZM83,75.74c.51,0,1,0,1.54.06s.91.06,1.29.06c1.32,0,1.6-.51,1.6-.93,0-.69-.77-.93-1.1-1C85.17,73.57,85,73,85,72.51c0-.82,0-1.62,0-2.4,0-2.19,0-4.09-.09-5.62a6.54,6.54,0,0,0-1.41-4.06,5,5,0,0,0-3.76-1.5A6.59,6.59,0,0,0,77,59.6a21.41,21.41,0,0,0-2.58,1.53,5.1,5.1,0,0,0-1.27-1.33,5.51,5.51,0,0,0-3.35-.87,10.07,10.07,0,0,0-5,1.93,1.49,1.49,0,0,1,0-.21c0-.44.09-.91.09-1.22s-.53-.82-.87-.89h0a1,1,0,0,0-.68.25,26.87,26.87,0,0,1-2.87,1.54c-.55.31-1.09.64-1.09,1.18,0,.37.19.55.92,1.21l.61.56a.81.81,0,0,1,.12.58V64c0,3,0,6.68-.11,7.73-.16,1.7-.38,1.92-1.27,2.14-1.23.28-1.32.89-1.32,1.08s.1.93,1.48.93c.4,0,.78,0,1.2,0s1-.07,1.74-.07c1.12,0,2.21.05,2.75.07h.35c1,0,1.56-.33,1.56-.89,0-.74-.78-1-1.41-1.19-1-.31-1.06-.69-1.06-1.29,0-3,0-7.9.08-8.9a.86.86,0,0,1,.25-.65,4.27,4.27,0,0,1,2.82-1.09,3.2,3.2,0,0,1,2.54,1,2.48,2.48,0,0,1,.41,1.7v7.69c0,1.27-.08,1.39-1.1,1.63s-1.17.68-1.17,1,.1,1,1.52,1c.41,0,.91,0,1.41,0s1,0,1.37,0,1,0,1.49,0,1,0,1.46,0c1.37,0,1.44-.81,1.44-1,0-.66-.92-1-1.2-1-1.09-.26-1.17-.43-1.28-1.53,0-.47,0-3.16,0-8v-.52a3.46,3.46,0,0,1,.28-.82l.07-.05a3.38,3.38,0,0,1,2.57-1,2.76,2.76,0,0,1,2.56,1.14,4,4,0,0,1,.55,2.36c0,.7,0,2.31,0,3.78,0,1.26,0,2.42,0,2.85,0,1.28-.11,1.46-1.06,1.76-.39.11-1.22.33-1.22,1,0,.3.15,1,1.48,1,.43,0,.79,0,1.18,0S82.4,75.74,83,75.74Z" transform="translate(-0.5 -0.5)"/><path d="M65.63,1.5A64.14,64.14,0,1,1,1.5,65.63,64.21,64.21,0,0,1,65.63,1.5M30.55,77a24.34,24.34,0,0,0,5.69-.75c.93-.26,1.79-.48,2.48-.65l1.08-.29a1.65,1.65,0,0,0,1.33-1.53c0-.82-.54-1.2-1.12-1.53a.4.4,0,0,1-.1-.29,44.91,44.91,0,0,1,.14-4.53l0-.09c.08-.24.11-.33.76-.52,1-.35,1.58-.89,1.58-1.61s-.63-1.52-2.06-1.52c-.7,0-1.43,0-2.07.09s-1,.07-1.46.07c-.61,0-1.78,0-2.81-.09-.84,0-1.57-.07-1.9-.07-1.49,0-2.18.81-2.18,1.55a1.89,1.89,0,0,0,2,1.67c2.24.15,2.45.53,2.62,1.06s.1,2.25.1,3.86A4.49,4.49,0,0,1,34.16,73a7.71,7.71,0,0,1-2.9.73,10.06,10.06,0,0,1-8.64-4.93A12.87,12.87,0,0,1,21,62.21c0-5.31,3.32-10.69,9.67-10.69a7.49,7.49,0,0,1,5.49,2,9.07,9.07,0,0,1,1.35,2.5c.17.42.61,1.53,1.64,1.53a1.68,1.68,0,0,0,1.51-1.86,18.13,18.13,0,0,0-.35-3,12.37,12.37,0,0,1-.2-1.36,1.81,1.81,0,0,0-1.27-1.92c-.32-.09-.57-.14-.93-.21l-.55-.1-.43-.1a28.22,28.22,0,0,0-6.38-.79,16.42,16.42,0,0,0-10.7,3.78,13.75,13.75,0,0,0-4.78,10.64,14.24,14.24,0,0,0,4.37,10.4A16.47,16.47,0,0,0,30.55,77m32.6-18.58a31.07,31.07,0,0,1-2.79,1.5l-.06,0,0,0c-.45.25-1.3.71-1.3,1.59,0,.59.31.88,1.08,1.58l.56.52a.89.89,0,0,1,0,.23s0,.1,0,.14c0,3,0,6.65-.11,7.68-.14,1.52-.26,1.55-.87,1.7a3.2,3.2,0,0,0-.57.18,2.46,2.46,0,0,0,0-.26,1.58,1.58,0,0,0-.32-1,1.12,1.12,0,0,0-1-.54,1.14,1.14,0,0,0-.67.22,3.73,3.73,0,0,1-1,.39q-.51,0-.51-1c0-.14,0-.82,0-1.71.05-1.77.12-4.18.12-5.19a5.84,5.84,0,0,0-1-3.82,4.94,4.94,0,0,0-4.36-2.28A9.21,9.21,0,0,0,46.29,60c-1.68,1.11-3.39,2.48-3.39,4.29a1.57,1.57,0,0,0,1.47,1.51,11.53,11.53,0,0,0,3.17-1.51l0,0,0,0a1.91,1.91,0,0,0,.53-1.15V63a2.74,2.74,0,0,1,0-.78,2.16,2.16,0,0,1,.88-.16A2.08,2.08,0,0,1,51.1,63.7c0,.46,0,2.11-.06,2.82l-.46.15c-.33.11-1,.3-1.72.51-1.53.44-2.56.74-2.94.89h-.05l-.28.13a3.88,3.88,0,0,0-1.66,1.14A4.38,4.38,0,0,0,43,72c0,2.48,1.74,4.65,3.71,4.65a7.89,7.89,0,0,0,1.89-.28A16,16,0,0,0,51.49,75a3.58,3.58,0,0,0,3,1.74,5.33,5.33,0,0,0,3.4-1.45c.15.56.72,1.1,1.94,1.1.42,0,.81,0,1.23,0s1-.07,1.71-.07c1.11,0,2.2.05,2.73.07h.37c1.52,0,2.06-.72,2.06-1.39,0-1.11-1.1-1.46-1.76-1.66s-.71-.37-.71-.82c0-2.75,0-7.88.07-8.85a.65.65,0,0,1,.06-.29h0a3.75,3.75,0,0,1,2.52-1,2.66,2.66,0,0,1,2.15.79c.09.12.3.39.3,1.39v7.69a2.47,2.47,0,0,1-.08.92,1.66,1.66,0,0,1-.65.23c-1.14.28-1.54,1-1.54,1.52,0,.24.09,1.47,2,1.47.42,0,.92,0,1.43,0s1,0,1.35,0,1,0,1.47,0,1,0,1.48,0c1.43,0,1.94-.79,1.94-1.47s-.59-1.25-1.6-1.52c-.8-.19-.8-.19-.88-1.08,0-.32-.05-2,0-8v-.47a3.1,3.1,0,0,1,.18-.54h0A2.91,2.91,0,0,1,78,62.43c1.51,0,2,.64,2.12.88a3.56,3.56,0,0,1,.49,2.12c0,.7,0,2.31,0,3.79,0,1.25,0,2.41,0,2.84,0,1.06,0,1.06-.68,1.27-.44.12-1.6.44-1.6,1.48,0,.25.1,1.51,2,1.51.44,0,.81,0,1.2,0s.87,0,1.47,0,1,0,1.51.06.92.06,1.32.06c1.89,0,2.1-1,2.1-1.43,0-1.06-1.1-1.4-1.48-1.52-.9-.24-.94-.55-1-.91,0-.82,0-1.62,0-2.38,0-2.21,0-4.12-.09-5.65a7,7,0,0,0-1.57-4.4,5.43,5.43,0,0,0-4.1-1.64,7,7,0,0,0-3,.73,23.08,23.08,0,0,0-2.23,1.28,5.58,5.58,0,0,0-1.1-1,5.93,5.93,0,0,0-3.64-1,9.32,9.32,0,0,0-4.36,1.46c0-.17,0-.33,0-.46a1.63,1.63,0,0,0-1.27-1.38l-.1,0H64a1.44,1.44,0,0,0-.88.34m46.12,15.36c-.87,0-1.66-.38-2.69-2.26-.29-.54-.77-1.43-1.7-1.43-.31,0-1.31.13-1.31,1.83a10,10,0,0,0,.73,3.49l.09.15.13.11c1.08.89,3.63,1.09,4.44,1.09a7.64,7.64,0,0,0,3.88-1.09A6,6,0,0,0,115.53,71c0-2.18-1.09-3.81-3.57-5.27s-3.37-2.16-3.37-2.93c0-.29.35-1.43,1.35-1.43.63,0,1.39.24,2.23,2,.37.81.9,1.25,1.5,1.25a1.56,1.56,0,0,0,1.47-1.7c0-.12,0-.4,0-.76S115,61,115,60.6a1.77,1.77,0,0,0-.86-1.44,8.78,8.78,0,0,0-1.48-.51,9.74,9.74,0,0,0-2.23-.26,6.9,6.9,0,0,0-3.66,1,5.07,5.07,0,0,0-2.64,4.39,5.84,5.84,0,0,0,2.9,4.81c.91.58,1.25.83,1.78,1.21l.57.41,0,0,0,0c1.13.69,1.29,1.26,1.29,1.77a2,2,0,0,1-.49,1.35,2.06,2.06,0,0,1-1,.4m-13.1,2.9a7.68,7.68,0,0,0,6.51-3.37l0,0,0,0a3.29,3.29,0,0,0,.41-1.45,1.36,1.36,0,0,0-1.31-1.47,1.72,1.72,0,0,0-1.34.91c-.28.41-.88,1-2.74,1a4.56,4.56,0,0,1-3.6-1.76,7,7,0,0,1-1.29-3.87,5.52,5.52,0,0,1,.06-.68c2.29,0,7.73,0,8.4,0a1.77,1.77,0,0,0,1.74-1.67,5.4,5.4,0,0,0-1.66-4,6.68,6.68,0,0,0-4.59-1.78,9.32,9.32,0,0,0-3.41.79,9.42,9.42,0,0,0-5.29,8.6c0,5.19,3.32,8.81,8.07,8.81M65.63.5a65.14,65.14,0,1,0,65.14,65.13A65.13,65.13,0,0,0,65.63.5ZM30.55,76a15.56,15.56,0,0,1-10.44-3.57,13.27,13.27,0,0,1-4-9.66,12.79,12.79,0,0,1,4.44-9.89,15.45,15.45,0,0,1,10-3.53,28.85,28.85,0,0,1,6.6.86c.78.16,1.06.2,1.49.32.15,0,.47.31.47.94,0,.94.55,2.82.55,4.32,0,.51-.24.86-.51.86s-.47-.31-.71-.9A10.12,10.12,0,0,0,37,53a8.39,8.39,0,0,0-6.28-2.43C24,50.52,20,56,20,62.21a13.81,13.81,0,0,0,1.76,7.14,11.07,11.07,0,0,0,9.5,5.42,8.52,8.52,0,0,0,3.53-.94,4.07,4.07,0,0,0,.83-2c0-1.38,0-3.61-.12-4.08-.28-.91-.59-1.65-3.53-1.85-.59,0-1-.35-1-.67s.44-.55,1.18-.55,3.57.16,4.71.16c.94,0,2.28-.16,3.53-.16.63,0,1.06.2,1.06.52s-.43.5-.9.66c-1.18.36-1.25.79-1.41,1.22a36.82,36.82,0,0,0-.2,4.87A1.35,1.35,0,0,0,39.46,73c.71.4.67.51.67.71s-.16.43-.59.55c-.71.2-2,.51-3.57.94a24,24,0,0,1-5.42.71Zm29.32-.59c-.59,0-1-.16-1-.43s.23-.43.94-.59c1.25-.32,1.49-.9,1.65-2.59.07-1.14.11-5.06.11-7.77a1.35,1.35,0,0,0-.27-1.06c-1.1-1-1.37-1.22-1.37-1.41s.35-.48.78-.71a29.93,29.93,0,0,0,3-1.61c.16-.12.24-.16.32-.16a.84.84,0,0,1,.47.4c0,.54-.16,1.64-.16,2,0,.09,0,.28.15.28a.21.21,0,0,0,.09,0c1-.78,3.41-2.27,5.26-2.27a5,5,0,0,1,3.06.78,4.51,4.51,0,0,1,1.25,1.37c.06.12.12.19.21.19l.11,0a19.63,19.63,0,0,1,2.78-1.69,6.09,6.09,0,0,1,2.51-.62,4.43,4.43,0,0,1,3.38,1.33,6.11,6.11,0,0,1,1.29,3.77c.16,2,.08,4.78.08,8,0,.71.28,1.46,1.69,1.85.51.15.75.31.75.55s-.36.43-1.1.43S84,75.24,83,75.24c-1.18,0-1.76.08-2.67.08-.74,0-1-.24-1-.51s.43-.39.87-.51c1.25-.39,1.41-.86,1.41-2.24,0-.94-.08-5.33-.08-6.63a4.57,4.57,0,0,0-.63-2.63,3.19,3.19,0,0,0-3-1.37,4,4,0,0,0-3,1.21,3,3,0,0,0-.4,1.14c0,.28-.07,7.69,0,8.56.12,1.25.32,1.65,1.65,2,.43.12.83.35.83.55s-.32.47-.94.47c-.87,0-2-.08-3-.08s-2,.08-2.78.08-1-.31-1-.47.15-.39.78-.55c1.33-.31,1.49-.71,1.49-2.12V64.49a3,3,0,0,0-.51-2,3.61,3.61,0,0,0-2.94-1.18A4.72,4.72,0,0,0,65,62.53a1.32,1.32,0,0,0-.43,1c-.08,1-.08,6-.08,8.94,0,.75.16,1.38,1.41,1.77.75.24,1.06.39,1.06.71s-.55.39-1.06.39c-.16,0-1.61-.08-3.1-.08-1.29,0-2.08.12-2.94.12Zm49.4-.63a2.89,2.89,0,0,0,1.57-.59,2.93,2.93,0,0,0,.91-2.16A3,3,0,0,0,110,69.35c-.94-.66-1.18-.86-2.39-1.64a4.86,4.86,0,0,1-2.44-4,4.08,4.08,0,0,1,2.16-3.53,5.89,5.89,0,0,1,3.14-.82,8.59,8.59,0,0,1,2,.23,7.25,7.25,0,0,1,1.26.43.83.83,0,0,1,.31.55c0,.71.12,2,.12,2.32s-.16.7-.47.7c-.16,0-.39-.23-.59-.66-.86-1.85-1.84-2.63-3.14-2.63a2.51,2.51,0,0,0-2.35,2.43c0,1.34,1.25,2.36,3.88,3.81,2.2,1.29,3.06,2.63,3.06,4.39a5,5,0,0,1-2.27,3.85,6.71,6.71,0,0,1-3.3.9,7.92,7.92,0,0,1-3.81-.86,10.29,10.29,0,0,1-.58-3c0-.44.07-.83.31-.83s.59.47.82.9c1.1,2,2.16,2.79,3.57,2.79Zm-64.9-9.89a.57.57,0,0,1-.47-.51c0-1.14,1.09-2.24,2.94-3.45a8.33,8.33,0,0,1,3.65-1.49A4,4,0,0,1,54,61.23a4.92,4.92,0,0,1,.79,3.26c0,1.53-.16,6.47-.16,6.9,0,1.81,1.25,2,1.57,2a4.44,4.44,0,0,0,1.49-.59l.08,0c.06,0,.1.06.16.15a.63.63,0,0,1,.11.39c0,.74-1.76,2.43-3.53,2.43a2.63,2.63,0,0,1-2.51-2,.3.3,0,0,0-.21-.16h0a15.52,15.52,0,0,1-3.53,1.81,6.65,6.65,0,0,1-1.57.23C45.31,75.63,44,74,44,72a3.43,3.43,0,0,1,.75-2,3.85,3.85,0,0,1,1.57-1c.59-.23,3.73-1.1,4.59-1.37S52,67.16,52,66.92s.08-2.75.08-3.22A3,3,0,0,0,49,61.07a2.67,2.67,0,0,0-1.61.44c-.24.11-.36.82-.28,1.6a.94.94,0,0,1-.23.44,14.9,14.9,0,0,1-2.55,1.29Zm51.8,10.79c-4.24,0-7.07-3.21-7.07-7.81a8,8,0,0,1,7.7-8.39,5.66,5.66,0,0,1,3.88,1.49,4.39,4.39,0,0,1,1.37,3.29.79.79,0,0,1-.74.67c-.43,0-7.14,0-9,0-.12,0-.27.2-.31.32a4.92,4.92,0,0,0-.2,1.37A8.05,8.05,0,0,0,93.34,71a5.57,5.57,0,0,0,4.4,2.16c1.72,0,2.9-.43,3.57-1.41.16-.24.35-.47.51-.47s.31.27.31.47a2.21,2.21,0,0,1-.27.94,6.71,6.71,0,0,1-5.69,2.94Z" transform="translate(-0.5 -0.5)"/></g></g></svg>