<svg xmlns="http://www.w3.org/2000/svg" viewBox="0 0 1920 1080"><defs><style>.cls-1{stroke:#000;stroke-linecap:square;stroke-linejoin:round;stroke-width:3px;}</style></defs><g id="Top_Leaf" data-name="Top Leaf"><path d="M.5,1079.5V.5h1919v1079ZM640.295,959.26A30.839,30.839,0,1,0,671.134,990.1,30.874,30.874,0,0,0,640.295,959.26ZM800,839.5A90.5,90.5,0,1,0,890.5,930,90.6,90.6,0,0,0,800,839.5Zm737.845-32.108a8.5,8.5,0,0,1,5.851,2.681c4.1,4.041,13.674,15.882,14.031,38.5.309,19.594,1.851,35.224,9.417,66.279,3.96,16.258,12.05,23.239,19.19,29.4,6.5,5.608,12.113,10.451,13.941,20.95,3.325,19.1,13.917,28.028,21.653,34.552,1.508,1.272,2.932,2.474,4.168,3.636,4.607,4.334,19.741,10.747,37.593,10.746a64.141,64.141,0,0,0,34.234-9.313c8.324-5.136,16.085-7.741,23.066-7.741,11.958,0,17.564,7.741,17.619,7.819l1.9,2.7-1.021-3.14c-6.865-21.119-45.631-25.894-47.278-26.087-.1-.021-14.173-2.9-23.118-12.711-8.509-9.335-18.43-26.766-18.388-45.173.037-16.477-9.1-24.556-17.163-31.684-.89-.786-1.773-1.567-2.635-2.35-.134-.114-12.165-10.552-8.617-25.533,1.3-5.469,3.383-8.242,6.206-8.242,2.953,0,5.74,3.02,5.769,3.05.119.113,8.737,8.045,10.476,18.035,1.83,10.512,11.812,30.209,18.4,38.361,6.646,8.228,19.1,31.3,19.224,31.529.664.875,15.394,19.873,29.677,22.692,5.938,1.172,13.69,5.158,21.9,9.379,11.588,5.959,24.724,12.713,37.338,14.222a182.011,182.011,0,0,0,21.4,1.63c15.208,0,28.323-3.569,43.855-11.936l1.391-.749-1.569-.188c-19.954-2.388-24.38-4.668-32.418-8.808-.633-.328-1.29-.666-1.977-1.015-9.3-4.736-21.785-22.553-25.215-30.289-1.345-3.031-2.91-9.179-4.893-16.961-3.147-12.357-7.064-27.734-12.508-40.393-16.9-39.305-37.793-53.854-51.619-63.481q-1.145-.8-2.216-1.549a98.066,98.066,0,0,0-47.274-14.667c-1-.061-1.723-.1-2.122-.163a15.059,15.059,0,0,0-2.18-.106h-.184c-3.036,0-6.815,0-11.08-5.775a7.9,7.9,0,0,1-1.727-6.54c.941-4.2,5.524-6.854,6.433-7.344a11.456,11.456,0,0,1,5.392-1.387c4.075,0,8.071,2.233,11.877,6.636,8.094,9.363,34.09,11.255,42.633,11.877,1.305.095,2.715.146,4.208.2,8.289.3,19.641.707,30.073,9.558,12.293,10.433,13.718,18.62,16.559,34.933l.275,1.577.671-1.453c7.14-15.438,12.96-41.7,9.867-65.552-3.066-23.641-28.7-46.033-43.822-49.017-12.179-.889-15.521-3.8-19.391-7.159a37.553,37.553,0,0,0-5.554-4.2c-4.234-2.546-6.617-3.448-9.107-3.448-2.086,0-4.223.637-7.456,1.6-.69.206-1.431.428-2.233.661a52.149,52.149,0,0,1-16.359,2.173c-4.326,0-9.816-.239-17.1-.576-15.788.973-22,6.1-28.014,11.049-1.274,1.05-2.478,2.042-3.779,3-7.29,5.383-12.176,7.354-27.487,11.087q-.456.014-.895.013c-14.815,0-17.48-10.987-17.863-13.189-.641-3.676,3.621-12.782,17.985-22.8a27.314,27.314,0,0,1,16.33-5.151c7.238,0,15.249,2.332,24.526,5.033,2.5.727,5.1,1.483,7.816,2.237a49.945,49.945,0,0,0,16.3,2.4c19.466,0,40.058-7.891,40.263-7.971a40.483,40.483,0,0,1,12.866-1.781c4.889,0,11.942.653,17.792,3.763,8,4.253,14.69,11.8,25.771,24.3,3.289,3.711,7.018,7.917,11.254,12.566l2.734,3-1.924-3.573c-.028-.053-.145-.25-.335-.576-4.618-7.878-12.836-22.576-16-32.51a228.639,228.639,0,0,1-5.879-24.063c-.758-3.747-1.356-6.707-1.906-8.48-4.883-15.768-8.756-26.114-21.354-36.8-13.439-11.5-32.093-13.921-45.376-13.921a105.821,105.821,0,0,0-18.625,1.573c-.317.055-33.189,5.865-51.34,16.387-18.051,10.464-41.606,20.936-41.841,21.041h0a64.22,64.22,0,0,1-13.124,1.608c-5.576,0-9.422-1.133-11.434-3.371a7.136,7.136,0,0,1-1.569-5.769c1.544-14.526,35.316-22.8,43.105-23.034,7.868-.241,24.2-3.245,34.512-10.288,4.142-2.828,6.974-4.034,9.468-4.034a15.942,15.942,0,0,1,3.988.683,31.3,31.3,0,0,0,5.942,1.064q.349.026.72.025c8.913,0,26.55-10.821,27.3-11.28.12-.07,13.325-7.632,26.538-7.632a29.745,29.745,0,0,1,6.838.756c15.087,3.572,25.3,19.51,25.4,19.67l1.349,2.136-.434-2.488A84.733,84.733,0,0,0,1711,603.587l-.911-1.956c-4.757-10.239-9.251-19.912-28.145-36.607-13.9-12.286-30.787-19.918-44.059-19.918-4.711,0-8.552.991-11.415,2.946-6.606,4.51-13.284,6.7-20.416,6.7a39.951,39.951,0,0,1-7.776-.8,82.982,82.982,0,0,0-16.814-2.014,65.343,65.343,0,0,0-19.328,3.033c-16.1,4.922-24.433,19.136-24.516,19.279-.132.211-14.112,22.624-18.3,28.58-4.135,5.88-16.442,13.29-16.566,13.364h0a21.315,21.315,0,0,1-7.948,1.882c-4.212,0-6.9-2.051-7.99-6.1-3.033-11.262,8.1-18.082,15.007-21.144,7.812-3.463,17.307-11.583,20.53-23.986s10.413-19.594,24.033-24.022c10.546-3.428,12.848-6.556,18.413-14.111,1.878-2.551,4.216-5.724,7.387-9.568,11.986-14.529,23.014-17.649,23.125-17.679a193.7,193.7,0,0,1,19.38-1.375c3.745,0,6.356.275,7.761.817,4.775,1.841,11.583,5.873,25.877,21.815l.8-.6c-5.857-9.49-10.456-23.617-12.679-30.455-.617-9.469-8.331-18.5-8.66-18.875-.1-.111-9.275-10.164-16.805-17.247-10.049-8.88-30.752-9.5-31.628-9.518l-.17,0c-3.465,0-12.508,2.506-20.487,4.716-4.953,1.373-9.632,2.669-11.988,3.079a14.37,14.37,0,0,1-2.486.207,38.562,38.562,0,0,1-5.221-.5,70.827,70.827,0,0,0-10.551-.842,78.175,78.175,0,0,0-8.311.467c-17.254,4.056-27.09,15.193-35.768,25.018l-.407.46c-8.808,9.969-15.445,27.032-15.511,27.2-.093.34-7.761,29.132-13.06,46.8-6.857,18.458-12.5,21.219-15.256,21.219-3.565,0-5.719-4.183-6.686-6.677-3.978-12.243-2.946-13.668,2.78-21.584.7-.966,1.467-2.026,2.3-3.209,11.721-11.537,11.047-28.534,11.039-28.7a184.288,184.288,0,0,1,5.608-28.358c10.215-21.78,18.164-24.055,26.579-26.463l1.2-.345c.2-.031,6.3-1.128,14.984-5.809l2.693-1.451-3.015.518a21.531,21.531,0,0,1-3.206.178c-4.452,0-14.322-.77-30.4-5.923a78.3,78.3,0,0,0-23.522-4.177c-7.464,0-11.033,1.634-11.181,1.7-8.9,2.583-33.924,10.1-34.176,10.174l-.049.015-.045.024c-.139.075-13.027,7.148-14.554,18.626-3.625-7.711-13.028-11.416-13.463-11.583a23.337,23.337,0,0,0-9.7-2.151,18.2,18.2,0,0,0-8.736,2.136c-8.767,4.723-14.764,18.137-15.015,18.706-.279.723-6.608,17.305-4.813,27.606,1.732,9.957-6.535,21.863-6.619,21.983-.137.129-19,19.431-22.3,36.9-3.283,34.844,5.958,42.417,16.657,51.186l.826.679c2.706,9.018,14.228,14.317,26.422,19.925,13.466,6.194,27.39,12.6,31.1,24.518.733,2.351,2.349,4.009,3.913,5.614,2.758,2.83,5.14,5.274,2.248,10.955-2.9,5.7-9.67,5.989-11,5.989l-.164,0c-.5.021-.969.03-1.438.03-24.088,0-52.281-26.313-67.684-52.305-17.062-28.8-33.119-37.616-43.743-43.453-5.605-3.079-10.273-5.13-14.841-5.13-6.906,0-12.635,4.823-18.033,15.178-9.449,18.129-1.274,46.862,2.655,60.67.4,1.4.749,2.629,1.028,3.67,3.673,13.634,6.66,32.539-9.714,39.291-19.233,7.928-34,34.062-36.733,65.03-2.826,31.939,21.1,63.744,33.134,74.141,7.108,6.143,9.448,9.63,14.573,17.272,2.979,4.441,6.687,9.969,12.721,18.141a.658.658,0,0,0,.555.393h.26l.165-.222c.217-.308.421-.6-4.67-14.676a79.792,79.792,0,0,1-4.494-31.833c.011-.22,1.116-19.437,19.485-45.55,16.816-23.907,43.783-33.156,52.645-36.2.921-.315,1.636-.561,2.112-.746,2.45-.949,11.161-2.72,19.077-2.72,6.56,0,14.476,1.188,14.94,6.849.716,8.758-7.692,16.656-17.428,25.8-2.716,2.552-5.525,5.19-8.266,7.971-27.837,29.588-33.371,39.871-42.539,56.908-2.591,4.815-5.527,10.272-9.342,16.838-16.984,29.237-16.924,67.838-9.328,93.123,7.82,26.03,25.695,29.04,38.459,29.039,1.63,0,3.364-.057,5.156-.167,1.036-.065,2.058-.1,3.039-.1,11.657,0,17.957,4.508,24.626,9.279a84.227,84.227,0,0,0,8.549,5.594,62.625,62.625,0,0,0,8.148,3.114,36.7,36.7,0,0,0,10.312,1.413c7.949,0,16.522-2.21,25.479-6.569l1.613-.785-1.787-.162c-10.761-.979-13.857-1.967-13.888-1.977-.142-.036-10.146-2.46-14.868-9.122-.139-.2-13.357-20.616-2.211-44.4,15.412-32.078,23.329-114.645,23.407-115.475.032-.2,3.515-22.89,11.509-36.774,7.819-12.21,12.266-14.778,14.617-14.778,4.617,0,5.281,9.965,5.373,13.02.317,10.378-4.492,26.394-14.7,48.961-21.08,49.847-21.116,55.564-21.251,76.839l-.015,2.279c-.15,19.934,9.688,41.509,29.239,64.126,12.4,14.35,29.971,19.441,41.246,19.441a20.632,20.632,0,0,0,8.026-1.3c4.5-2,7.577-3.207,12.351-3.207,4.733,0,10.659,1.241,19.216,4.024a47.164,47.164,0,0,0,14.238,2.747c8.5,0,12.978-4.226,18.833-10.673l.827-.911-1.228.076c-2.323.144-4.391.213-6.321.213-10.745,0-14.75-2.22-20.291-5.295-1.266-.7-2.575-1.428-4.071-2.19-4.04-1.941-13.059-11.6-18.824-23.994a154.457,154.457,0,0,1-7.473-42.993c2.285-28.014,1.8-50.777-1.325-62.394l-.175-1.785c-1.848-18.208-1.848-18.208-1.457-24.633.18-2.944.45-7.395.657-15.645,1.717-13.063,4.267-15.816,6.1-15.816,4.124,0,9.6,13.214,12.007,22.144,1.4,5.217-.151,14.177-1.951,24.551-2,11.532-4.272,24.6-3.284,36.658,1.758,21.474,5.033,61.448,40.125,89.8,20.855,16.851,41.614,24.7,65.327,24.7a178.936,178.936,0,0,0,23.762-1.895l2.376-.316-2.305-.66c-.341-.1-34.16-10.224-32.418-47.821,1.634-35.3-10.163-55.812-14.6-63.536-.412-.717-.761-1.322-1.027-1.818-2.664-4.948-15.953-30.56-15.91-48.895C1528.217,812.077,1533.408,807.392,1537.845,807.392ZM981.383,904.82a30.84,30.84,0,1,0,30.84,30.84A30.875,30.875,0,0,0,981.383,904.82ZM1000,599.5A120.5,120.5,0,1,0,1120.5,720,120.637,120.637,0,0,0,1000,599.5Zm150.7-72.889a30.84,30.84,0,1,0,30.84,30.84A30.875,30.875,0,0,0,1150.7,526.611ZM1080,119.5c-99.528,0-180.5,80.972-180.5,180.5S980.472,480.5,1080,480.5s180.5-80.972,180.5-180.5S1179.528,119.5,1080,119.5Zm640,150a90.5,90.5,0,1,0,90.5,90.5A90.6,90.6,0,0,0,1720,269.5Zm-385.75,59.253a30.84,30.84,0,1,0,30.84,30.84A30.875,30.875,0,0,0,1334.25,328.753Zm-513.633-42.44a30.84,30.84,0,1,0,30.84,30.84A30.875,30.875,0,0,0,820.617,286.313ZM1480,89.5A120.5,120.5,0,1,0,1600.5,210,120.637,120.637,0,0,0,1480,89.5Zm-717-30A90.5,90.5,0,1,0,853.5,150,90.6,90.6,0,0,0,763,59.5Zm946.521,89.966a30.84,30.84,0,1,0,30.838,30.84A30.875,30.875,0,0,0,1709.521,149.466ZM602.483,59.288a30.84,30.84,0,1,0,30.839,30.839A30.875,30.875,0,0,0,602.483,59.288Zm677.259-.377a30.84,30.84,0,1,0,30.84,30.839A30.875,30.875,0,0,0,1279.742,58.911Z"/><path d="M1919,1V1079H1V1H1919M1279.742,121.09A31.34,31.34,0,1,0,1248.4,89.75a31.375,31.375,0,0,0,31.339,31.34m-677.259.377a31.34,31.34,0,1,0-31.34-31.34,31.375,31.375,0,0,0,31.34,31.34M763,241a91,91,0,1,0-91-91,91.1,91.1,0,0,0,91,91m717,90a121,121,0,1,0-85.56-35.44A120.208,120.208,0,0,0,1480,331M1080,481a180.429,180.429,0,1,0-70.454-14.224A179.883,179.883,0,0,0,1080,481m629.52-269.354a31.34,31.34,0,1,0-31.34-31.34,31.375,31.375,0,0,0,31.34,31.34M1720,451a91,91,0,1,0-91-91,91.1,91.1,0,0,0,91,91M820.617,348.493a31.34,31.34,0,1,0-31.34-31.34,31.375,31.375,0,0,0,31.34,31.34m513.633,42.44a31.34,31.34,0,1,0-31.34-31.34,31.375,31.375,0,0,0,31.34,31.34m94.927,52.142c-9.03,2.627-33.937,10.108-34.188,10.184l-.1.029-.089.048c-.552.3-12.237,6.715-14.563,17.528-3.99-6.817-12.2-10.182-12.991-10.494a24.066,24.066,0,0,0-9.924-2.2,18.706,18.706,0,0,0-8.974,2.2c-8.917,4.8-14.982,18.369-15.254,18.988-.272.707-6.648,17.414-4.83,27.85,1.632,9.376-5.846,20.6-6.492,21.546-1.4,1.433-19.161,19.87-22.422,37.164l-.008.045-.005.046c-3.3,35.063,6.035,42.715,16.846,51.575l.709.582c2.849,9.143,14.412,14.461,26.646,20.089,13.366,6.148,27.188,12.506,30.836,24.212.768,2.466,2.427,4.168,4.032,5.814,2.732,2.8,4.891,5.017,2.16,10.378-2.772,5.442-9.276,5.718-10.552,5.718l-.143,0h-.04l-.04,0c-.458.019-.915.029-1.377.029-10.972,0-23.531-5.468-36.317-15.813a138.221,138.221,0,0,1-30.936-36.248c-17.132-28.913-33.261-37.773-43.934-43.637-5.672-3.116-10.407-5.191-15.08-5.191-7.113,0-12.984,4.909-18.477,15.448-9.542,18.307-1.328,47.171,2.619,61.042.4,1.391.746,2.62,1.025,3.658,3.622,13.451,6.586,32.1-9.423,38.7-9.065,3.738-17.694,12.038-24.3,23.373-6.958,11.945-11.365,26.494-12.743,42.076-2.842,32.133,21.213,64.112,33.307,74.564,7.055,6.1,9.383,9.567,14.482,17.169,2.977,4.438,6.68,9.959,12.7,18.115a1.131,1.131,0,0,0,.992.643l.535-.009.3-.425c.392-.559.57-.814-4.609-15.134a79.323,79.323,0,0,1-4.467-31.61l0-.029v-.029c.009-.19,1.125-19.287,19.393-45.258,16.724-23.775,43.576-32.984,52.4-36.01.916-.314,1.64-.562,2.129-.752,2.42-.938,11.042-2.687,18.9-2.687,6.35,0,14.009,1.109,14.441,6.39.7,8.518-7.629,16.339-17.271,25.395-2.72,2.555-5.532,5.2-8.3,8-27.874,29.627-33.419,39.932-42.607,57.005-2.589,4.812-5.524,10.266-9.334,16.824-7.937,13.664-12.788,30.4-14.028,48.41a129.83,129.83,0,0,0,4.654,45.109c3.306,11.006,8.442,18.68,15.7,23.463,6.059,3.991,13.659,5.932,23.236,5.932,1.637,0,3.382-.057,5.186-.168,1.026-.064,2.038-.1,3.009-.1,11.5,0,17.732,4.463,24.335,9.187a84.7,84.7,0,0,0,8.6,5.624,63.135,63.135,0,0,0,8.249,3.157,37.244,37.244,0,0,0,10.452,1.432c8.026,0,16.671-2.227,25.7-6.619l3.227-1.57-3.575-.325c-10.651-.968-13.748-1.944-13.774-1.953l-.043-.014-.043-.01c-.1-.024-9.924-2.411-14.533-8.912a44.194,44.194,0,0,1-5.541-14.163,45.841,45.841,0,0,1,3.372-29.725c15.352-31.956,23.275-113.761,23.453-115.623.144-.935,3.627-23.017,11.421-36.558,7.711-12.04,11.983-14.567,14.209-14.566,3.311,0,4.689,6.475,4.873,12.533.315,10.3-4.479,26.244-14.666,48.764-21.113,49.926-21.149,55.665-21.285,77.018l-.016,2.28c-.15,20.057,9.729,41.744,29.362,64.456,12.513,14.476,30.243,19.613,41.624,19.613a21.08,21.08,0,0,0,8.229-1.344c4.441-1.969,7.474-3.165,12.148-3.165,4.615,0,10.672,1.271,19.06,4a47.65,47.65,0,0,0,14.394,2.772c8.709,0,13.257-4.29,19.2-10.836l1.655-1.822-2.457.152c-2.279.141-4.395.212-6.289.212-10.617,0-14.573-2.194-20.048-5.232-1.27-.7-2.584-1.433-4.109-2.21-3.957-1.9-12.833-11.428-18.551-23.7a153.926,153.926,0,0,1-7.451-42.8c2.281-28.036,1.8-50.8-1.322-62.485l-.18-1.777c-1.845-18.174-1.845-18.174-1.456-24.559.179-2.942.449-7.384.656-15.612,1.828-13.881,4.527-15.38,5.6-15.379,3.694,0,9.066,12.646,11.524,21.773,1.376,5.11-.171,14.019-1.962,24.335-2.006,11.562-4.281,24.666-3.289,36.784,1.765,21.55,5.051,61.664,40.311,90.153,20.947,16.925,41.805,24.807,65.641,24.807a179.112,179.112,0,0,0,23.827-1.9l4.744-.631-4.6-1.321a49.7,49.7,0,0,1-16.74-9.591c-10.886-9.439-16.039-22.132-15.317-37.726,1.642-35.44-10.208-56.049-14.669-63.808-.409-.712-.756-1.314-1.021-1.807-1.627-3.02-15.893-30.043-15.851-48.656.028-12.013,4.62-17.39,9.159-17.389a8.008,8.008,0,0,1,5.5,2.537c4.056,4,13.528,15.719,13.882,38.154.31,19.629,1.853,35.287,9.43,66.389,4,16.414,12.154,23.451,19.35,29.659,6.427,5.545,11.978,10.334,13.775,20.657,3.356,19.274,14.03,28.275,21.823,34.848,1.5,1.267,2.922,2.464,4.148,3.617,4.665,4.389,19.948,10.884,37.937,10.884a64.641,64.641,0,0,0,34.5-9.388c8.244-5.088,15.917-7.668,22.8-7.667,11.65,0,17.157,7.534,17.21,7.608l3.809,5.393-2.041-6.279c-6.911-21.259-45.45-26.16-47.651-26.422-.772-.162-14.235-3.1-22.852-12.558-8.448-9.269-18.3-26.573-18.257-44.835.038-16.7-9.19-24.861-17.333-32.06-.888-.785-1.768-1.563-2.653-2.366-.12-.1-11.917-10.357-8.443-25.027.849-3.584,2.53-7.857,5.72-7.857,2.72,0,5.373,2.86,5.4,2.888l.032.035.034.031c.086.078,8.579,7.9,10.287,17.716,1.843,10.582,11.881,30.395,18.5,38.59s19.048,31.221,19.173,31.452l.038.071.049.064c.625.814,15.467,19.956,29.933,22.81,5.869,1.158,13.591,5.129,21.766,9.333,11.626,5.978,24.8,12.755,37.509,14.275a182.555,182.555,0,0,0,21.463,1.633c15.3,0,28.481-3.588,44.091-12l2.781-1.5-3.137-.375c-19.865-2.377-24.264-4.643-32.249-8.757-.634-.327-1.291-.665-1.978-1.015-8.852-4.51-21.5-22.188-24.985-30.046-1.327-2.993-2.888-9.121-4.864-16.88-3.152-12.374-7.075-27.773-12.534-40.469-16.959-39.436-37.921-54.034-51.792-63.694q-1.146-.8-2.215-1.547l-.022-.015-.022-.014a98.536,98.536,0,0,0-47.488-14.729c-.951-.057-1.7-.1-2.078-.158a15.422,15.422,0,0,0-2.246-.111h-.2c-2.92,0-6.554,0-10.669-5.572a7.428,7.428,0,0,1-1.641-6.133c.692-3.092,3.763-5.71,6.182-7.014a10.965,10.965,0,0,1,5.155-1.327c3.923,0,7.792,2.175,11.5,6.463,8.23,9.522,34.386,11.424,42.981,12.049,1.308.095,2.723.146,4.221.2,8.216.295,19.468.7,29.767,9.439,12.155,10.315,13.57,18.443,16.389,34.637l.549,3.154,1.344-2.9c7.17-15.5,13.014-41.87,9.908-65.826-3.091-23.844-28.957-46.432-44.22-49.444l-.06-.012-.061,0c-11.953-.869-15.237-3.724-19.039-7.029a37.821,37.821,0,0,0-5.624-4.252c-4.321-2.6-6.772-3.52-9.364-3.52-2.16,0-4.324.646-7.6,1.624-.689.205-1.428.426-2.23.659a51.671,51.671,0,0,1-16.218,2.153c-4.315,0-9.8-.239-17.077-.576l-.054,0-.054,0c-15.9.983-22.175,6.158-28.247,11.162-1.269,1.046-2.468,2.034-3.758,2.987-7.3,5.388-11.9,7.245-27.259,10.99q-.418.012-.826.012c-14.416,0-17-10.641-17.371-12.774-.618-3.551,3.607-12.421,17.78-22.306a26.831,26.831,0,0,1,16.044-5.062c7.166,0,15.147,2.325,24.388,5.015,2.5.727,5.075,1.478,7.789,2.229a50.523,50.523,0,0,0,16.458,2.428c19.564,0,40.238-7.925,40.445-8a40,40,0,0,1,12.685-1.747c4.832,0,11.8.643,17.557,3.7,7.921,4.211,14.586,11.73,25.629,24.185,3.291,3.713,7.022,7.921,11.262,12.573l5.47,6-3.851-7.15c-.029-.054-.147-.257-.342-.59-4.608-7.859-12.807-22.52-15.955-32.41a228.331,228.331,0,0,1-5.866-24.014c-.76-3.759-1.361-6.728-1.917-8.526-4.91-15.853-8.807-26.257-21.5-37.032-13.558-11.605-32.337-14.041-45.7-14.041a106.352,106.352,0,0,0-18.7,1.577c-.331.058-33.292,5.882-51.519,16.449-17.489,10.138-40.158,20.288-41.71,20.98a62.667,62.667,0,0,1-13,1.6c-5.351,0-9.176-1.109-11.062-3.207a6.574,6.574,0,0,1-1.444-5.382c.809-7.611,10.784-13.175,19.01-16.5,10.139-4.1,20.382-5.986,23.613-6.085,7.925-.241,24.376-3.271,34.779-10.373,5.1-3.479,7.5-3.948,9.186-3.948a15.549,15.549,0,0,1,3.863.667,31.655,31.655,0,0,0,6.03,1.079c.245.018.5.026.757.026,9.053,0,26.808-10.891,27.535-11.341.131-.076,13.228-7.573,26.3-7.571a29.3,29.3,0,0,1,6.723.742c14.881,3.524,25,19.293,25.1,19.452l2.7,4.265-.865-4.97a83.6,83.6,0,0,0-6.566-19.254q-.459-.98-.91-1.951c-4.779-10.289-9.294-20.008-28.267-36.773-13.993-12.364-31-20.044-44.392-20.044-4.813,0-8.749,1.02-11.7,3.033-6.52,4.451-13.105,6.614-20.133,6.614a39.5,39.5,0,0,1-7.681-.789l-.075-.015a83.046,83.046,0,0,0-16.835-2.008,65.818,65.818,0,0,0-19.474,3.054c-16.285,4.979-24.463,18.917-24.785,19.478-.141.226-14.114,22.626-18.3,28.571-3.955,5.622-15.58,12.718-16.373,13.2a20.669,20.669,0,0,1-7.733,1.836c-4.014,0-6.469-1.872-7.507-5.725-2.936-10.9,7.966-17.56,14.726-20.558,7.919-3.511,17.544-11.743,20.812-24.318,3.177-12.224,10.265-19.3,23.7-23.672,10.7-3.477,13.194-6.865,18.661-14.289,1.875-2.546,4.208-5.713,7.371-9.547,11.418-13.84,21.939-17.235,22.81-17.5a189.954,189.954,0,0,1,19.309-1.375c4.587,0,6.654.426,7.581.783,4.718,1.82,11.46,5.819,25.685,21.683l1.6-1.193c-5.805-9.408-10.384-23.443-12.609-30.288-.658-9.613-8.444-18.722-8.794-19.127-.092-.1-9.28-10.168-16.846-17.285-10.173-8.989-31.052-9.611-31.937-9.634l-.181,0c-3.533,0-12.611,2.515-20.619,4.734-4.942,1.369-9.609,2.662-11.942,3.068a13.789,13.789,0,0,1-2.4.2,38.136,38.136,0,0,1-5.152-.5,71.311,71.311,0,0,0-10.62-.846,78.619,78.619,0,0,0-8.364.469l-.063.007-.061.015c-17.345,4.082-27.237,15.28-35.964,25.161l-.408.462c-8.868,10.036-15.333,26.652-15.6,27.355l-.019.05-.014.052c-.077.289-7.733,29.04-13.028,46.707-6.759,18.18-12.166,20.895-14.789,20.895-2.381,0-4.644-2.308-6.209-6.334-3.9-12-2.887-13.4,2.709-21.133.686-.948,1.437-1.985,2.251-3.142,11.578-11.466,11.24-27.566,11.185-29.009a182.519,182.519,0,0,1,5.563-28.2c10.129-21.58,17.605-23.72,26.259-26.2q.573-.164,1.15-.331c.689-.127,6.716-1.33,15.133-5.864l5.341-2.879-5.985,1.013a21.419,21.419,0,0,1-3.122.171c-4.423,0-14.234-.767-30.25-5.9a78.753,78.753,0,0,0-23.674-4.2c-7.057,0-10.722,1.458-11.313,1.715M1150.7,588.791a31.34,31.34,0,1,0-31.339-31.34,31.375,31.375,0,0,0,31.339,31.34M1000,841a121,121,0,1,0-85.56-35.44A120.208,120.208,0,0,0,1000,841M800,1021a91,91,0,1,0-91-91,91.1,91.1,0,0,0,91,91m181.383-54a31.34,31.34,0,1,0-31.34-31.34A31.375,31.375,0,0,0,981.383,967m-341.088,54.439a31.34,31.34,0,1,0-31.34-31.34,31.375,31.375,0,0,0,31.34,31.34M1920,0H0V1080H1920V0ZM1279.742,120.09a30.34,30.34,0,1,1,30.34-30.34,30.34,30.34,0,0,1-30.34,30.34Zm-677.259.377a30.34,30.34,0,1,1,30.339-30.34,30.34,30.34,0,0,1-30.339,30.34ZM763,240a90,90,0,1,1,90-90,90,90,0,0,1-90,90Zm717,90a120,120,0,1,1,120-120,120,120,0,0,1-120,120ZM1080,480a180,180,0,1,1,180-180,180,180,0,0,1-180,180Zm629.52-269.354a30.34,30.34,0,1,1,30.34-30.34,30.34,30.34,0,0,1-30.34,30.34ZM1720,450a90,90,0,1,1,90-90,90,90,0,0,1-90,90ZM820.617,347.493a30.34,30.34,0,1,1,30.339-30.34,30.34,30.34,0,0,1-30.339,30.34Zm513.633,42.44a30.34,30.34,0,1,1,30.339-30.34,30.34,30.34,0,0,1-30.339,30.34Zm46.589,84.807c-.092-12.7,14.437-20.524,14.437-20.524s25.17-7.561,34.246-10.2c0,0,3.53-1.656,10.968-1.656,5.556,0,13.293.924,23.369,4.153,15.984,5.123,25.857,5.947,30.555,5.947a21.468,21.468,0,0,0,3.291-.186c-8.717,4.7-14.887,5.771-14.887,5.771-9.075,2.639-17.3,4.071-28.117,27.144a182.263,182.263,0,0,0-5.628,28.525s.808,16.811-10.948,28.393c-7.644,10.866-9.7,11.224-5.137,25.262,1.6,4.123,4.076,7,7.151,7,4.326,0,9.834-5.685,15.737-21.576,5.362-17.885,13.046-46.769,13.046-46.769s6.57-17.035,15.42-27.052,18.551-21.24,35.852-25.312a77.89,77.89,0,0,1,8.259-.464c7.7,0,11.815,1.344,15.772,1.344a14.827,14.827,0,0,0,2.571-.214c6.111-1.064,26.823-7.788,32.39-7.788l.158,0s21.281.533,31.3,9.383c7.6,7.152,16.769,17.21,16.769,17.21s7.96,9.209,8.543,18.642c2.282,7.019,6.845,21.057,12.748,30.624-13.147-14.662-20.391-19.758-26.07-21.948-1.624-.626-4.568-.85-7.94-.85a191.055,191.055,0,0,0-19.511,1.392s-11.132,3-23.38,17.844-11.531,18.959-25.569,23.522-21.19,12.165-24.362,24.371a36.49,36.49,0,0,1-20.249,23.655c-7.868,3.489-18.284,10.6-15.287,21.732,1.37,5.084,4.968,6.465,8.473,6.465a21.609,21.609,0,0,0,8.2-1.953s12.472-7.469,16.719-13.5,18.325-28.618,18.325-28.618,8.135-14.13,24.229-19.051a64.817,64.817,0,0,1,19.183-3.01,82.665,82.665,0,0,1,16.717,2,40.743,40.743,0,0,0,7.873.808c6.472,0,13.339-1.765,20.7-6.788,2.811-1.92,6.643-2.859,11.132-2.859,12.144,0,29.1,6.869,43.729,19.793,20.034,17.7,23.88,27.626,28.935,38.4a83.384,83.384,0,0,1,6.486,19s-10.241-16.227-25.712-19.891a30.21,30.21,0,0,0-6.953-.769c-13.509,0-26.8,7.706-26.8,7.706s-18.16,11.206-27.034,11.206q-.353,0-.684-.024c-4.731-.344-7.073-1.748-9.966-1.748-2.355,0-5.075.93-9.75,4.122-10.416,7.11-26.869,9.975-34.246,10.2s-41.98,8.369-43.587,23.48c-.83,7.807,6.359,9.695,13.5,9.695a63.262,63.262,0,0,0,13.326-1.652s23.605-10.466,41.889-21.066,51.189-16.328,51.189-16.328a104.128,104.128,0,0,1,18.526-1.563c13.57,0,31.847,2.5,45.053,13.8,12.431,10.549,16.221,20.492,21.2,36.568,1.491,4.818,3.418,18.826,7.785,32.547,3.99,12.538,16.043,32.564,16.37,33.172-18.335-20.116-26.653-31.381-37.16-36.968-5.377-2.859-12.09-3.821-18.027-3.821-5.665,0-10.624.876-13.047,1.815-3.757,1.456-22.426,7.937-40.083,7.937a49.594,49.594,0,0,1-16.16-2.383c-13.014-3.6-23.236-7.288-32.475-7.289a27.845,27.845,0,0,0-16.617,5.242c-14.171,9.883-18.908,19.184-18.192,23.3.7,4.022,4.4,13.6,18.356,13.6.316,0,.635,0,.961-.015,15.245-3.714,20.208-5.637,27.718-11.183s12.605-12.789,31.473-13.955c7.454.346,12.82.577,17.123.577a52.538,52.538,0,0,0,16.5-2.193c4.521-1.315,7.1-2.243,9.55-2.243,2.466,0,4.8.941,8.849,3.377,8.07,4.852,7.937,10.173,25.106,11.421,14.262,2.814,40.332,24.762,43.421,48.591s-2.9,50.3-9.823,65.278c-2.865-16.453-4.3-24.679-16.728-35.228s-25.978-9.25-34.562-9.874-34.338-2.5-42.3-11.706c-4.6-5.327-8.894-6.809-12.255-6.809a11.909,11.909,0,0,0-5.63,1.447c-2.9,1.566-10.416,7.111-4.87,14.621,4.367,5.915,8.373,5.978,11.473,5.978h.2a14.439,14.439,0,0,1,2.1.1c3.264.491,25.395-.184,49.183,14.745,13.281,9.342,35.862,23.421,53.664,64.818,8.9,20.7,13.914,49.491,17.4,57.359s16.145,25.794,25.445,30.532,12.923,7.285,34.563,9.874c-17.133,9.229-30.413,11.877-43.617,11.877a179.438,179.438,0,0,1-21.344-1.626c-21.64-2.589-44.937-20.782-59.2-23.6s-29.334-22.438-29.334-22.438-12.523-23.247-19.275-31.606-16.5-27.851-18.294-38.134-10.6-18.284-10.6-18.284-2.93-3.213-6.138-3.214c-2.468,0-5.1,1.9-6.693,8.626-3.663,15.47,8.768,26.02,8.768,26.02,8.809,8,19.675,15.644,19.634,33.662s9.351,35.453,18.518,45.511,23.43,12.872,23.43,12.872,40.016,4.686,46.861,25.743c0,0-5.672-8.03-18.027-8.031-6.105,0-13.839,1.959-23.329,7.816a64.158,64.158,0,0,1-33.971,9.239c-17.552,0-32.574-6.211-37.252-10.612-7.6-7.152-21.732-15.286-25.67-37.909s-25.712-19.891-33.139-50.381-9.085-46.094-9.4-66.168-7.786-32.547-14.18-38.85a8.939,8.939,0,0,0-6.2-2.825c-5.167,0-10.13,5.656-10.159,18.387-.041,18.018,12.84,43.321,15.971,49.133s17.352,26.643,15.571,65.094,32.781,48.324,32.781,48.324a178.146,178.146,0,0,1-23.695,1.891c-19.472,0-40.7-4.941-65.013-24.586-34.52-27.892-38.06-66.476-39.942-89.456s8.217-50.166,5.219-61.3c-1.959-7.275-7.567-22.511-12.489-22.513-2.609,0-5.025,4.28-6.6,16.3-.665,26.6-1.965,13.056.992,42.206,3,11.132,3.672,33.263,1.308,62.279a154.214,154.214,0,0,0,7.519,43.188c5.927,12.742,15,22.285,19.051,24.229,8.141,4.147,11.281,7.541,24.59,7.541,1.9,0,4-.069,6.35-.214-5.568,6.131-9.9,10.508-18.462,10.508-3.738,0-8.28-.834-14.084-2.722-9-2.929-14.865-4.049-19.37-4.049-5.049,0-8.4,1.406-12.553,3.25a20.213,20.213,0,0,1-7.824,1.258c-11.033,0-28.612-5.089-40.868-19.267-15.92-18.417-29.292-40.457-29.118-63.795s-.542-27.451,21.222-78.916c13-28.751,14.97-41.806,14.745-49.183-.136-4.478-1.066-13.5-5.872-13.5-3.113,0-7.85,3.78-15.052,15.027-8.134,14.13-11.572,36.977-11.572,36.977s-7.809,82.937-23.362,115.31c-10.815,23.072.869,42.944,2.255,44.9,4.892,6.9,15.119,9.307,15.119,9.307s3,1,14,2c-10.513,5.115-19.01,6.518-25.26,6.518a35.8,35.8,0,0,1-10.172-1.392,63.09,63.09,0,0,1-8.047-3.074c-11.054-6.073-16.936-14.933-33.415-14.934q-1.477,0-3.07.1c-1.728.107-3.44.166-5.125.166-16.723,0-31.112-5.817-37.981-28.683-7.56-25.169-7.836-63.262,9.282-92.729s16.044-35.636,51.8-73.646c12.606-12.789,26.777-22.673,25.836-34.163-.462-5.647-7.655-7.308-15.438-7.308-8.051,0-16.734,1.777-19.257,2.755-4.963,1.923-36.3,10.558-54.986,37.119s-19.574,45.786-19.574,45.786a79.584,79.584,0,0,0,4.522,32.056c4.563,12.615,4.86,14.227,4.715,14.227-.05,0-.152-.19-.152-.19-16.636-22.53-16.145-25.794-27.369-35.494s-35.82-41.438-32.965-73.719,18.633-57.276,36.426-64.612,13.005-28.751,10.008-39.883-14.048-44.17-3.723-63.978c5.815-11.157,11.574-14.91,17.589-14.91,4.665,0,9.483,2.257,14.6,5.068,11.715,6.436,27.052,15.419,43.555,43.27,16.18,27.307,44.226,52.551,68.113,52.551.476,0,.947-.01,1.42-.03,0,0,.063,0,.18,0,1.227,0,8.386-.262,11.443-6.264,4.737-9.3-4.164-10.641-6.129-16.944-7.2-23.113-52.18-25.877-57.566-44.582-11.117-9.145-20.776-15.939-17.429-51.484,3.305-17.527,22.213-36.711,22.213-36.711s8.493-12.073,6.7-22.356,4.778-27.318,4.778-27.318,6.078-13.772,14.8-18.468a17.744,17.744,0,0,1,8.5-2.076,23.125,23.125,0,0,1,9.519,2.117s11.356,4.38,14,13.455ZM1150.7,587.791a30.34,30.34,0,1,1,30.34-30.34,30.34,30.34,0,0,1-30.34,30.34ZM1000,840a120,120,0,1,1,120-120,120,120,0,0,1-120,120ZM800,1020a90,90,0,1,1,90-90,90,90,0,0,1-90,90Zm181.383-54a30.34,30.34,0,1,1,30.339-30.34A30.34,30.34,0,0,1,981.383,966Zm-341.088,54.439a30.34,30.34,0,1,1,30.339-30.34,30.34,30.34,0,0,1-30.339,30.34Z"/><path class="cls-1" d="M1462.574,743.384s4.379-11.357-1.166-18.867-11.848-1.116-16.095,4.921-5.719,15.828-3.438,22.847S1452.117,768.512,1462.574,743.384Z"/><path class="cls-1" d="M1410.577,742.9s8.717-4.7,8.625-17.394-6.619-13.68-13.413-4.021-5.362,17.885-5.362,17.885S1399.312,751.22,1410.577,742.9Z"/><path class="cls-1" d="M1455.27,658.84c.85-1.208,7.07-4.318,7.285-12.923.134-5.32-4.7-8.717-14.62-4.87-8.026,3.11-15.379,9.034-18.06,17.976s-1.309,15.7,9.168,10.058C1450.666,662.82,1455.27,658.84,1455.27,658.84Z"/><path class="cls-1" d="M1469.092,695.633c1.708,1.2,8.943,2.681,18.51-3.223s6.66-4.338,11.981-4.2,8.584.625,9.925-3.846-3.847-9.925-12.79-12.606-18.734-4.155-27.226,7.919S1466.678,693.934,1469.092,695.633Z"/><path class="cls-1" d="M1529.5,720.078a26.986,26.986,0,0,0,28.434-7.07c6.3-6.394,4.871-14.621-6.977-15.736s-25.17,7.56-25.17,7.56S1513.671,714.358,1529.5,720.078Z"/><path class="cls-1" d="M1513.956,801.183c1.414.424,10.283-1.79,10.682-17.751.758-13.9,2.456-16.32,2.456-16.32s5.229-12.564-7.469-12.472-14.887,5.77-16.136,22.939S1505.013,798.5,1513.956,801.183Z"/><path class="cls-1" d="M1586.918,782.123s11.091,15.021,27.676,6.836c10.058-9.168,1.74-20.433-3.58-20.566C1611.014,768.393,1578.733,765.538,1586.918,782.123Z"/><path class="cls-1" d="M1594.7,814.67c1.8,2.766,5.054,10.774,9.658,6.794s1.116-11.848-3.714-15.245S1590.366,808.009,1594.7,814.67Z"/><path class="cls-1" d="M1261.554,708.459s24.054,4.288,33.263-3.672-1.657-15.6-8.543-18.643-23.921-9.608-37.376,4.389S1241.971,705.512,1261.554,708.459Z"/><path class="cls-1" d="M1325.174,702.679s-1.79-10.282,11.623-6.261S1337.472,718.549,1325.174,702.679Z"/><path class="cls-1" d="M1426.111,613.063c1.036-1.051,8.851-10.017,5.72-15.828s-10.017-8.851-14.4,2.506S1413.505,625.852,1426.111,613.063Z"/><path class="cls-1" d="M1359.3,533.582s-4.778,27.318,8.86,38.717,10.191-14.488,10.191-14.488-2.639-9.075,2.456-16.319-10.866-7.644-4.655-26.736,1.157-29.866-2.465-32.414-17.249-14.42-18.059,17.977C1355.228,516.28,1352.323,517.846,1359.3,533.582Z"/></g></svg>