<svg xmlns="http://www.w3.org/2000/svg" viewBox="0 0 181.61 181.61"><g id="Layer_2" data-name="Layer 2"><g id="HTML_Boolean" data-name="HTML Boolean"><path d="M91.31,181.61a90.31,90.31,0,1,1,90.3-90.3A90.41,90.41,0,0,1,91.31,181.61ZM74.91,79.2a.23.23,0,0,1,0,.13v5.59c0,3.59-.24,13.17-.33,16-.14,3.4-.16,3.92-3.14,4.61-.61.13-1.28.66-1.28,1.28s.5,1.07,1.91,1.07c.22,0,.64,0,1.21-.09,1-.1,2.62-.24,4.15-.24s3.29.11,4.4.18l1,0c1.5,0,1.81-.58,1.81-1.06,0-.75-1.08-1.2-1.65-1.34-2.75-.62-2.8-1-3-2.9s-.19-6.29-.19-11.6V79.33h0s.06-.09.1-.14c.4,0,1.91-.1,4.2-.1,1,0,1.89,0,2.18,0,2.85.14,3.1.32,3.33,2.38.1.77.24,1.94,1.16,1.94a1.48,1.48,0,0,0,1.3-1.33,25.68,25.68,0,0,1,1-5.31A1.58,1.58,0,0,0,93,75.39a.76.76,0,0,0-.61-.32,1.51,1.51,0,0,0-.8.29l-.1,0a5.23,5.23,0,0,1-3,.79c-1.89,0-8.26.09-10.73.09-6.29,0-9.83-.15-10.94-.28a2.52,2.52,0,0,1-1.3-.75,2,2,0,0,1-.42-.46.83.83,0,0,0-.69-.44,1.41,1.41,0,0,0-1.2,1.25,21.87,21.87,0,0,1-.62,4.59,9.69,9.69,0,0,0-.28,1.66c0,.64.26,1.58,1,1.58h0c.6,0,1-.36,1.36-1.24A10,10,0,0,1,66.06,80c.66-.73,1.5-1,3.18-1C70.07,79,73.92,79.07,74.91,79.2Zm69.43,28.31c7.66,0,12,.18,13.59.25l.79,0c.36,0,1.55-.38,1.63-1.26a40.1,40.1,0,0,1,1.36-4.75l.07-.21a2,2,0,0,0-.12-1.65.67.67,0,0,0-.54-.27c-.38,0-1,.22-1.6,1.27a18.84,18.84,0,0,1-2.46,2.9l-.15.15a2.26,2.26,0,0,1-1.49.74l-.1,0a31.6,31.6,0,0,1-3.27.13,32.12,32.12,0,0,1-4.44-.23,3.06,3.06,0,0,1-1.18-1.36c-.17-1.45-.32-5.88-.32-9.66,0-6.77,0-11.67.28-13.75.05-.38.1-.81,2.76-1.41,1.22-.32,1.47-.88,1.47-1.29,0-.67-.56-1-1.67-1-.5,0-1.41,0-2.42,0-1.27,0-2.72.09-3.74.09-.69,0-1.24,0-1.78-.05s-1.07,0-1.7,0c-1.27,0-1.91.36-1.91,1.07,0,.31.17,1.07,1.72,1.38,2,.39,2,1.11,2.09,1.88,0,1.54,0,4.74,0,6.65,0,6.92-.14,14.28-.23,15.43-.2,1.57-.67,2.31-3.08,2.79-1.12.21-1.53.85-1.53,1.33,0,1,1.22,1,1.87,1l1.08,0C140.41,107.62,142.16,107.51,144.34,107.51ZM51.14,93.26s.06.13.06.49c0,2.39-.09,5.6-.18,7.55-.14,3.21-.31,3.48-2.56,4.15-.88.24-1.39.72-1.39,1.32,0,1,1.21,1,1.67,1s1.54-.07,2.67-.14,2.32-.14,2.83-.14c.84,0,1.76,0,2.53.08.56,0,1,.06,1.37.06.5,0,1.82,0,1.82-1,0-.55-.5-1-1.42-1.36-2.11-.61-2.27-.69-2.34-2.19,0-.24,0-1-.06-1.91-.06-1.57-.13-3.72-.13-5,0-7.59.13-12.92.37-15.41.08-1.12.26-1.81,2.07-2.24,1.15-.28,1.74-.73,1.74-1.34,0-.46-.31-1-1.81-1l-1.13,0c-.91,0-2.14.1-3.15.1-.68,0-2,0-3.06-.06l-1.73,0c-1.3,0-2,.35-2,1s.52,1.08,1.54,1.37c2,.53,2.1.75,2.22,2.24.14,1.79.14,7.84.09,8.48a3,3,0,0,1-.13.76c-5.23,0-9.69,0-13,.1l-4.38,0c0-.08,0-.22,0-.47,0-.74,0-6.91.14-8.48C34,79.4,34,79,35.91,78.59c.62-.11,1.77-.33,1.77-1.38,0-.3-.19-1-2-1-.47,0-1,0-1.6,0-.8,0-1.74.06-2.87.06-.59,0-1.31,0-2-.05s-1.56,0-2.23,0c-1.17,0-1.87.38-1.87,1s.58,1.17,1.72,1.38c1.75.38,1.87.87,1.95,2.22.07,1.57,0,4.53,0,6.12,0,.5,0,.89,0,1.09,0,8.65-.35,13.9-.42,14.86-.16,1.57-.37,1.9-2.59,2.47-1.27.34-1.46,1-1.46,1.37,0,1,1.39,1,1.91,1,.89,0,1.9-.06,2.79-.11.73,0,1.39-.08,1.87-.08,1.16,0,2.9.09,3.95.14l.93,0c1.28,0,1.58-.34,1.68-.46a.73.73,0,0,0,.18-.58c-.08-.83-.79-1.09-1.77-1.36-1.7-.52-2.13-1.15-2.17-3.19,0-.34,0-1,0-1.83,0-2.32,0-5.84,0-6.72a.63.63,0,0,1,.16-.35c.32,0,1,0,2,0l5.9,0c3,0,6.41,0,9.48,0Zm75.39,14.25c1.11,0,3,.09,4.36.16l1.51.07c1.11,0,1.86-.44,1.86-1.11s-.62-1.15-1.66-1.38c-2.09-.61-2.42-1-2.66-2.82-.11-1-.66-6.76-.66-20.28,0-1.74.41-2.86,1.14-3.16a9.77,9.77,0,0,1,2-.58c1.35-.23,1.63-.8,1.63-1.25s-.29-1-1.72-1l-1.36,0c-1.37,0-3.44.11-4.56.11-.46,0-.94.74-1,1.06-.16.54-.55,1.43-.8,2-.15.35-.25.61-.27.68-.52,1.34-5.51,10.92-9.71,18.86-.9-1.59-5.45-11-8.53-17.45l-.36-.76a24.56,24.56,0,0,1-1.4-3.46c-.06-.28-.55-.95-1-.95-1.32,0-2.12,0-2.94-.05s-1.78,0-3.36,0c-1,0-1.86,0-1.86,1a1.49,1.49,0,0,0,1.11,1.24c.53.12,1,.27,1.65.45l.37.11a2.25,2.25,0,0,1,1.75,2.25c-.09,3.49-1.12,17-1.59,20.23-.35,2.51-.54,3.13-3.22,3.91-.75.18-1.3.65-1.3,1.14s.3,1.16,1.73,1.16c.6,0,1.27,0,1.94-.07s1.27-.07,1.81-.07,1.32,0,2.1.06,1.81.08,2.6.08c1.6,0,1.77-.75,1.77-1.07,0-.86-.71-1.12-1.63-1.37-2.21-.69-2.42-1.18-2.5-3.35-.13-3.83.27-13.45.61-17,.64,1.41,1.43,3,2.32,4.89,1.77,3.68,3.77,7.86,5.32,11.63.78,2,1.34,3.58,1.72,4.92.21.78.66,1.26,1.18,1.26h0c.73,0,1.08-.38,1.55-1.64.62-1.6,1.59-3.85,2.9-6.69,1.62-3.4,5.76-11.56,7.16-14.24.13,4,.19,15.27,0,17.19-.14,1.7-.2,2.48-1.8,2.94-.52.15-1.59.46-1.59,1.33s.92,1.16,1.77,1.16c.61,0,1.33,0,2-.08S126.11,107.51,126.53,107.51Z" transform="translate(-0.5 -0.5)"/><path d="M91.31,1.5A89.81,89.81,0,1,1,1.5,91.31,89.9,89.9,0,0,1,91.31,1.5M63.36,83.94h0c1,0,1.44-.8,1.75-1.51a11.28,11.28,0,0,1,1.28-2.09l0,0,.07-.08c.4-.46,1-.74,2.73-.74.73,0,3.85.07,5.2.18v5.26c0,3.59-.24,13.15-.33,15.94C74,104.27,74,104.4,71.37,105a2,2,0,0,0-1.68,1.77c0,.72.63,1.57,2.41,1.57.25,0,.65,0,1.25-.1,1-.09,2.6-.23,4.11-.23s3.26.11,4.37.18l1,0c2.09,0,2.31-1.09,2.31-1.56,0-1-1.1-1.61-2-1.82-2.39-.54-2.41-.73-2.61-2.47s-.18-6.26-.18-11.55V79.66c.63,0,2-.07,3.8-.07,1.17,0,1.93,0,2.16,0,2.65.13,2.65.16,2.86,1.94.1.83.29,2.38,1.65,2.38a2,2,0,0,0,1.79-1.77,26.23,26.23,0,0,1,1-5.19,2,2,0,0,0-.12-1.87,1.2,1.2,0,0,0-1-.54,2,2,0,0,0-1.05.35l-.1.06,0,0,0,0a4.66,4.66,0,0,1-2.64.66c-1.91,0-8.27.1-10.74.1-5.87,0-9.69-.14-10.93-.28a2.25,2.25,0,0,1-1-.6l0,0,0,0a1.2,1.2,0,0,1-.29-.33,1.34,1.34,0,0,0-1.1-.65,1.9,1.9,0,0,0-1.7,1.75,21.09,21.09,0,0,1-.61,4.48,9.43,9.43,0,0,0-.29,1.77c0,1,.51,2.08,1.49,2.08h0m79.43-8.15c-.67,0-1.23,0-1.76-.05s-1.07,0-1.72,0c-2.1,0-2.41,1-2.41,1.57,0,.34.15,1.48,2.13,1.87,1.63.32,1.65.73,1.68,1.4,0,1.54,0,4.73,0,6.64,0,6.78-.14,14.28-.22,15.34-.18,1.35-.47,1.94-2.67,2.39-1.44.27-2,1.15-2,1.82,0,1.52,1.78,1.52,2.37,1.52.23,0,.58,0,1.11,0,1-.07,2.78-.18,5-.18,7.65,0,11.95.18,13.57.25l.81,0c.55,0,2-.49,2.12-1.64a39.33,39.33,0,0,1,1.35-4.72l.07-.21v-.06a2.49,2.49,0,0,0-.23-2,1.19,1.19,0,0,0-.93-.46c-.73,0-1.4.49-2,1.48a19.16,19.16,0,0,1-2.4,2.84l-.13.13a1.91,1.91,0,0,1-1.22.62h-.11a30.05,30.05,0,0,1-3.2.13,32.75,32.75,0,0,1-4.27-.21,3.17,3.17,0,0,1-.85-.93c-.17-1.44-.32-5.84-.32-9.61,0-6.75,0-11.63.27-13.68,0-.14.06-.47,2.42-1,1.58-.42,1.82-1.29,1.82-1.77s-.21-1.51-2.17-1.51c-.52,0-1.4,0-2.43.06-1.27,0-2.72.08-3.73.08M125,77.16h0c-.17.56-.55,1.44-.8,2-.16.39-.23.55-.27.68-.56,1.42-5.18,10.28-9.24,18-1.5-2.86-5.43-11-8.09-16.56l-.35-.76a23.84,23.84,0,0,1-1.39-3.4h0c-.16-.51-.76-1.3-1.46-1.3-1.31,0-2.1,0-2.93-.05s-1.79,0-3.37,0c-1,0-2.36,0-2.36,1.47a2,2,0,0,0,1.47,1.72h0c.49.11,1,.26,1.6.44l.38.11a1.74,1.74,0,0,1,1.38,1.74c-.09,3.5-1.12,17-1.59,20.19-.33,2.35-.39,2.78-2.83,3.49-1,.25-1.69.9-1.69,1.63,0,.5.22,1.66,2.23,1.66.62,0,1.3,0,2-.07s1.25-.07,1.78-.07,1.3,0,2.08.06,1.81.08,2.62.08c2.16,0,2.27-1.3,2.27-1.57,0-1.31-1.2-1.64-2-1.84-2-.62-2.09-.91-2.16-2.89-.11-3.27.16-10.76.45-15L104.27,90c1.76,3.68,3.77,7.85,5.3,11.59a50.78,50.78,0,0,1,1.7,4.88c.28,1,.92,1.63,1.67,1.63H113c1.11,0,1.54-.89,1.95-2,.61-1.59,1.58-3.83,2.88-6.65s4.45-9,6.26-12.5c.09,4.8.12,13.52,0,15.19s-.21,2.14-1.44,2.5c-.53.15-1.95.56-1.95,1.81,0,1,.94,1.66,2.27,1.66.63,0,1.35,0,2-.08s1.14-.06,1.54-.06c1.09,0,3,.09,4.33.16.88,0,1.34.07,1.54.07,1.41,0,2.36-.65,2.36-1.61s-.75-1.57-2-1.86c-1.91-.56-2.09-.75-2.31-2.38-.11-1-.65-6.75-.65-20.24,0-1.48.31-2.49.83-2.69a9.54,9.54,0,0,1,1.91-.56c1.79-.3,2-1.22,2-1.74s-.21-1.51-2.22-1.51l-1.38,0c-1.36,0-3.43.11-4.54.11-.74,0-1.33.9-1.47,1.37M54.1,75.79c-.67,0-2,0-3.05-.06l-1.74,0c-2,0-2.46.83-2.46,1.52s.33,1.41,1.92,1.86,1.74.51,1.84,1.79c.14,1.76.14,7.84.1,8.38,0,.13,0,.23,0,.32-5.06,0-9.38.06-12.56.1l-3.93,0c0-.8,0-7,.14-8.42.13-1.79.14-1.9,1.69-2.19.65-.13,2.17-.42,2.17-1.88,0-.45-.24-1.52-2.5-1.52-.47,0-1,0-1.61,0-.82,0-1.74.06-2.86.06-.59,0-1.3,0-2-.05s-1.56,0-2.24,0c-1.75,0-2.37.79-2.37,1.52s.37,1.54,2.11,1.87c1.48.32,1.49.54,1.56,1.75.07,1.56,0,4.51,0,6.09,0,.51,0,.9,0,1.1,0,6.69-.23,12.17-.42,14.8-.14,1.35-.16,1.52-2.23,2.05-1.64.44-1.82,1.45-1.82,1.85,0,1,.81,1.48,2.41,1.48.91,0,1.92-.06,2.82-.11.71,0,1.38-.08,1.84-.08,1.14,0,2.88.09,3.92.14l1,0c1.35,0,1.82-.36,2.06-.63a1.19,1.19,0,0,0,.3-.94c-.12-1.26-1.29-1.58-2.11-1.8-1.43-.44-1.79-.81-1.83-2.71,0-.36,0-1,0-1.84,0-2.1,0-5.56,0-6.58h1.63l5.89,0,9.05,0c0,2.37-.09,5.57-.18,7.51-.13,3.07-.21,3.1-2.18,3.68-1.6.44-1.77,1.41-1.77,1.81,0,.69.37,1.52,2.17,1.52.49,0,1.56-.07,2.7-.14s2.3-.14,2.8-.14c.82,0,1.75,0,2.5.08.57,0,1.06.06,1.4.06,1.54,0,2.32-.51,2.32-1.52,0-.45-.23-1.29-1.75-1.83h-.06c-1.88-.55-1.89-.55-1.95-1.7,0-.3,0-1-.06-1.93-.06-1.56-.13-3.71-.13-5,0-7.58.13-12.89.37-15.39.07-1,.16-1.42,1.68-1.78,1.76-.42,2.13-1.22,2.13-1.82,0-.45-.22-1.51-2.31-1.51l-1.16,0c-.89,0-2.13.1-3.12.1M91.31.5a90.81,90.81,0,1,0,90.8,90.81A90.81,90.81,0,0,0,91.31.5ZM63.36,82.94h0c-.28,0-.47-.61-.47-1.08,0-.89.9-3.47.9-6.25a1,1,0,0,1,.7-.75c.24,0,.24.33.75.75a3.15,3.15,0,0,0,1.6.9c1.22.14,5,.28,11,.28,2.44,0,8.83-.05,10.76-.1a5.69,5.69,0,0,0,3.2-.84c.33-.19.47-.28.65-.28s.43.42.19,1.08a26.7,26.7,0,0,0-1,5.4c0,.42-.42.89-.8.89s-.52-.32-.66-1.5c-.28-2.44-.89-2.68-3.81-2.82-.29,0-1.17,0-2.2,0-1.79,0-4,0-4.37.13s-.43.51-.43.61V90.84c0,5.45,0,9.92.19,11.66.24,2.11.47,2.67,3.38,3.33.62.14,1.27.52,1.27.85,0,.52-.84.56-1.31.56s-3.29-.23-5.36-.23c-2.35,0-4.75.33-5.36.33-.94,0-1.41-.29-1.41-.57s.47-.7.89-.8c3.29-.75,3.39-1.55,3.53-5.07.09-2.78.33-12.36.33-16V79.33c0-.38-.24-.61-.38-.61-.94-.15-5.07-.24-5.82-.24-1.79,0-2.78.28-3.48,1.08A9.82,9.82,0,0,0,64.21,82c-.39.91-.66.94-.85.94Zm79.43-6.15c1.83,0,5-.14,6.16-.14.84,0,1.17.19,1.17.51s-.38.61-1.08.8c-2.73.61-3.06,1.13-3.15,1.84-.28,2.11-.28,6.86-.28,13.81,0,3.67.14,8.18.33,9.73a3.2,3.2,0,0,0,1.59,1.79,33.09,33.09,0,0,0,4.52.23,29,29,0,0,0,3.33-.14,2.86,2.86,0,0,0,1.88-.89,20.25,20.25,0,0,0,2.68-3.15c.52-.85.94-1,1.18-1s.37.51.19,1.26a40,40,0,0,0-1.46,5.08c0,.52-.94.8-1.13.8-.56,0-4.84-.28-14.38-.28-3.2,0-5.4.23-6.06.23-.9,0-1.37-.09-1.37-.52s.38-.7,1.13-.84c2.59-.52,3.24-1.41,3.48-3.24.09-1.18.23-8.65.23-15.47,0-1.88,0-5.12,0-6.67-.05-1-.28-1.93-2.49-2.35-.94-.19-1.32-.56-1.32-.89s.38-.57,1.41-.57c1.27,0,2.12.1,3.48.1Zm-28,22.8a.12.12,0,0,0,.12-.06c.42-.79,9.21-17.38,10-19.36,0-.19.8-1.78,1.08-2.72a1.32,1.32,0,0,1,.52-.66c1.69,0,5.5-.14,5.92-.14.61,0,1.22.09,1.22.51s-.37.61-1.22.76a10.21,10.21,0,0,0-2.11.61c-.71.28-1.46,1.17-1.46,3.62,0,13.06.52,19,.66,20.35.28,2.11.8,2.58,3.05,3.24.85.19,1.27.56,1.27.89s-.66.61-1.36.61c-.52,0-4.14-.23-5.87-.23-.9,0-2.45.14-3.58.14-.51,0-1.27-.19-1.27-.66s.57-.66,1.23-.85c1.92-.56,2-1.64,2.16-3.38.19-2.11.09-15.74,0-18.14,0-.2-.07-.39-.19-.39s-.17.07-.28.25c-.52.89-5.78,11.23-7.61,15.08-1.13,2.45-2.21,4.89-2.92,6.73-.48,1.27-.72,1.31-1,1.31h-.07c-.28,0-.56-.38-.7-.89a51.3,51.3,0,0,0-1.74-5C108,95,104.11,87.6,102.37,83.6c-.07-.15-.13-.25-.19-.25s-.12.12-.14.39a176.79,176.79,0,0,0-.75,18.14c.09,2.4.47,3.06,2.86,3.81,1,.28,1.27.47,1.27.89s-.51.57-1.27.57c-1.5,0-3.47-.14-4.7-.14s-2.58.14-3.75.14c-.71,0-1.23-.14-1.23-.66,0-.19.33-.52.94-.66,2.92-.84,3.2-1.64,3.58-4.32.46-3.24,1.5-16.78,1.59-20.3a2.76,2.76,0,0,0-2.11-2.73c-.8-.24-1.41-.42-2-.56-.33-.1-.75-.43-.75-.76s.32-.47,1.36-.47c3,0,3.57.1,6.3.1a1.11,1.11,0,0,1,.51.61,31.17,31.17,0,0,0,1.79,4.28c2.63,5.54,8.08,16.82,8.74,17.71a.51.51,0,0,0,.35.2ZM54.1,76.79c1.6,0,3.76-.14,4.28-.14.75,0,1.31.14,1.31.51s-.37.61-1.36.85c-2,.47-2.35,1.32-2.44,2.68-.24,2.4-.38,7.47-.38,15.46,0,2.07.19,6.25.19,7,.09,1.83.56,2,2.68,2.63.65.23,1.08.56,1.08.89s-.43.52-1.32.52-2.44-.14-3.9-.14c-1,0-4.56.28-5.5.28-.7,0-1.17-.09-1.17-.52s.51-.7,1-.84c2.54-.76,2.77-1.27,2.91-4.61.1-2,.19-5.22.19-7.57,0-.84-.19-1-.56-1-5.46,0-12-.08-15.38-.08-1.11,0-1.87,0-2.1,0s-.52.42-.52.8c-.1,1.22,0,7.24,0,8.6,0,2.21.56,3,2.54,3.67,1,.28,1.36.47,1.41.93s-.76.48-1.37.48c-.33,0-3.19-.19-4.88-.19-1.09,0-3.06.19-4.66.19-1,0-1.41-.19-1.41-.48,0-.46.57-.75,1.08-.89,2.4-.61,2.78-1.08,3-2.91s.42-7.24.42-14.9c0-.85.09-5.17,0-7.24-.1-1.6-.38-2.25-2.35-2.68-1-.18-1.32-.51-1.32-.89s.61-.52,1.37-.52c1.31,0,3,.1,4.27.1,2,0,3.39-.1,4.47-.1s1.5.24,1.5.52c0,.47-.38.71-1.36.89-2.21.43-2.35,1.13-2.49,3.11-.14,1.55-.19,7.75-.14,8.55s.18.94.51.94c2.78,0,9.17-.14,17.49-.14.28,0,.42-.28.51-1.22,0-.61,0-6.72-.09-8.56S51.14,78.67,49,78.1c-.65-.18-1.17-.47-1.17-.89s.47-.52,1.46-.52c.61,0,3.61.1,4.79.1Z" transform="translate(-0.5 -0.5)"/></g></g></svg>