<svg xmlns="http://www.w3.org/2000/svg" viewBox="0 0 300.07 300.07"><g id="Layer_2" data-name="Layer 2"><g id="Projects_Boolean" data-name="Projects Boolean"><path d="M170.56,147.12c-1.83,0-3.38,0-4.42-.05a.28.28,0,0,1,0-.23c1.42-3.64,4.37-5.81,7.89-5.81,2.74,0,4.95,2.44,4.95,4.46,0,1.18-.33,1.57-2.31,1.57S172.43,147.12,170.56,147.12Z" transform="translate(-0.5 -0.5)"/><path d="M174,141.53c2.4,0,4.45,2.18,4.45,4,0,.78,0,1.07-1.83,1.07-2,0-4.14.06-6.05.06-1.49,0-2.8,0-3.81,0a7.86,7.86,0,0,1,7.24-5.05m0-1c-3.72,0-6.87,2.32-8.35,6.12-.17.41.16.91.33.91,1.07,0,2.7.06,4.59.06s4,0,6.07-.06,2.81-.41,2.81-2.07c0-2.31-2.48-5-5.45-5Z" transform="translate(-0.5 -0.5)"/><path d="M117.52,169.8c-3.65,0-8.24-2.73-10.28-8.84a24.23,24.23,0,0,1-1-7.2c0-4.35,2-8.43,3.89-10.22a8.22,8.22,0,0,1,5-2.26,10,10,0,0,1,6.58,3.06c3.31,3.83,4,8.81,4,12.31s-1.67,8.52-3.59,10.58C119.88,169.55,118.15,169.8,117.52,169.8Z" transform="translate(-0.5 -0.5)"/><path d="M115.2,141.78a9.44,9.44,0,0,1,6.19,2.88c3.22,3.72,3.89,8.58,3.89,12s-1.64,8.29-3.42,10.21c-2.2,2.2-3.77,2.44-4.34,2.44-3.47,0-7.85-2.63-9.8-8.48a23.67,23.67,0,0,1-.94-7.06c0-4.2,1.87-8.14,3.7-9.82a7.68,7.68,0,0,1,4.72-2.16m0-1a8.71,8.71,0,0,0-5.37,2.4c-2.15,2-4,6.28-4,10.58a24.83,24.83,0,0,0,1,7.36c2.07,6.2,6.78,9.18,10.75,9.18.91,0,2.73-.42,5-2.73,2.07-2.23,3.72-7.36,3.72-10.92,0-4.29-1-9-4.13-12.65a10.44,10.44,0,0,0-7-3.22Z" transform="translate(-0.5 -0.5)"/><path d="M150.53,300.07C68.08,300.07,1,233,1,150.53S68.08,1,150.53,1,300.07,68.08,300.07,150.53,233,300.07,150.53,300.07Zm-1.26-162.44a3.22,3.22,0,0,0-1.66.48,66.48,66.48,0,0,1-7.66,2.6c-.84.28-1.77,1.07-1.77,1.72s.69,1.07,1.11,1.28c2.77,1.58,3.06,2.15,3.11,2.59.15,1,.33,5.67.33,21.77,0,9.87-1.47,16.72-4.36,20.36a22.16,22.16,0,0,1-5.16,4l-.05,0,0,0a1.36,1.36,0,0,0-.15,1.54l.05.06.06,0a4.11,4.11,0,0,0,2.13.52,7.2,7.2,0,0,0,3.11-1.58,27.84,27.84,0,0,0,7.91-8.67c2.3-3.86,3.54-9.09,3.7-15.54,0-.86.09-5.46.14-10.78.08-7.3.18-16.37.28-19.06C150.35,138.7,149.77,137.63,149.27,137.63Zm102.1,24.73c-.53,0-1.16.38-1.16,2.23a21,21,0,0,0,1.31,6.54l0,.08.07,0c1.53,1.26,5.82,1.94,8.33,1.94a14.5,14.5,0,0,0,7.23-2c1.52-1.09,5-4.09,5-8.52,0-4-2-6.92-6.69-9.69-5.87-3.24-7.94-5.22-7.94-7.59,0-1.36,1.28-4.63,4.46-4.63,2.56,0,4.46,1.62,6.16,5.25.49,1.08,1.11,1.7,1.7,1.7.87,0,1.49-.82,1.49-2,0-.23,0-.79-.09-1.49-.07-1.05-.16-2.49-.16-3.39a2.18,2.18,0,0,0-.94-1.6,15.54,15.54,0,0,0-2.78-1,19.24,19.24,0,0,0-4.31-.5,12.7,12.7,0,0,0-6.88,1.81,9.11,9.11,0,0,0-4.78,7.87c0,5,4.1,8,5.36,8.77,1.94,1.25,2.68,1.79,3.81,2.59l1.21.87c2.44,1.49,3.51,3.07,3.51,5.13a5.75,5.75,0,0,1-1.71,4.16,5.86,5.86,0,0,1-3,1.13c-2.84,0-4.89-1.63-7.08-5.61C252.93,163.38,252.29,162.36,251.37,162.36ZM233.51,133.5c-.54,0-1,.51-2.28,2a44.72,44.72,0,0,1-5.6,4.89l-.94.75a1.9,1.9,0,0,0-.69,1.3c0,.61.8,1.12,1.48,1.38,2.49.75,2.79,1.16,2.83,1.23,0,1.38-.09,5.2-.17,8.9-.08,3.86-.17,7.86-.17,9.41,0,2.44.19,4.24,1.16,5.73a9.17,9.17,0,0,0,7.69,4.12,12.9,12.9,0,0,0,9.2-3.78,4.15,4.15,0,0,0,1.31-2.43c0-1.06-.67-1.41-1-1.41a2.83,2.83,0,0,0-1.48.56,8.73,8.73,0,0,1-3.81,1.18,6.44,6.44,0,0,1-4.71-1.45c-.74-.73-1.24-1.65-1.24-3.68,0-3.78.08-15.82.16-17.69a.42.42,0,0,1,.25-.16h9c.27,0,2.65,0,2.65-1.41a12.06,12.06,0,0,0-.25-3.16c0-.66-1.18-1.14-1.41-1.14s-.89,0-2,.07c-2.58.09-6.9.26-8.17.26a.47.47,0,0,1-.16-.2v-3.85C235.17,134.39,234.12,133.5,233.51,133.5Zm-116.74,4.3a19.1,19.1,0,0,0-12.56,4.67,16.59,16.59,0,0,0-6,13.28,18.83,18.83,0,0,0,6.3,13,18.34,18.34,0,0,0,11.31,4.42,16.89,16.89,0,0,0,10.55-3.41,18.35,18.35,0,0,0,7.4-14.62A17,17,0,0,0,116.77,137.8Zm94.09.25a23.26,23.26,0,0,0-11.12,3.56,17.7,17.7,0,0,0-8.23,14.71,20.92,20.92,0,0,0,2.63,9.94,15.21,15.21,0,0,0,12.67,6.85,17.13,17.13,0,0,0,12.28-5.29,3.84,3.84,0,0,0,1.2-2.73,1,1,0,0,0-1-.91,2.32,2.32,0,0,0-1.32.51,11.73,11.73,0,0,1-7.07,2.38,11.53,11.53,0,0,1-10-5.3,15,15,0,0,1-2.08-8,13.59,13.59,0,0,1,3.35-9.17,7.65,7.65,0,0,1,4.75-2.65c2.39,0,3.65.93,5.94,2.61l.71.52a9.39,9.39,0,0,0,3.52,1.67c.66,0,3.23-2.23,3.23-3.81a4.21,4.21,0,0,0-1.45-2.89C217.21,138.75,213.51,138.05,210.86,138.05Zm-36.05-.17a17.92,17.92,0,0,0-6.49,1.54,18.19,18.19,0,0,0-10.21,16.66c0,10,6.32,16.95,15.38,16.95a14.59,14.59,0,0,0,12.4-6.42,5.07,5.07,0,0,0,.67-2.27c0-.87-.48-1.49-1.16-1.49-.47,0-.93.38-1.49,1.22-1.28,1.88-3.54,2.75-7.11,2.75a11.26,11.26,0,0,1-8.86-4.34,16.6,16.6,0,0,1-3-9.13,10.15,10.15,0,0,1,.38-2.72.82.82,0,0,1,.27-.35c3.61.09,17.23.09,18.77.09a2.15,2.15,0,0,0,2.07-1.9,9.7,9.7,0,0,0-3-7.31A12.39,12.39,0,0,0,174.81,137.88ZM78.57,172.2c2.88,0,5.06.15,6.81.27,1.14.08,2.11.15,3,.15,1.53,0,2.49-.48,2.49-1.25,0-.56-.32-1.32-1.84-1.8l-.91-.24c-1-.28-2.1-.57-2.93-.76-1.09-.18-1.6-1.27-1.77-3.76-.08-1.18-.49-16.17-.49-17.83a2.67,2.67,0,0,1,.7-1.49,4.33,4.33,0,0,1,3.26-1,7.35,7.35,0,0,1,4.22,1.69,2.79,2.79,0,0,0,1.34.4.82.82,0,0,0,.37-.07,20.44,20.44,0,0,0,3.58-4,4.09,4.09,0,0,0,.59-1.44c0-.86-.86-3.31-4.64-3.31-2.54,0-6.15,1.91-9.5,5,0-.69,0-1.36.08-2s.08-1.5.08-2.24c0-.44-.54-1.5-1.24-1.5-.35,0-.66.22-1.35.69l-.58.39a37.51,37.51,0,0,1-6,2.59,2.08,2.08,0,0,0-1.42,1.88c0,.45.34.69,1.09,1.21.45.32,1.07.75,1.91,1.41.67.43.72,1.17.72,2.09V163.1c-.08,5-.32,5.43-3.21,6.39l-.16.06c-.82.31-1.84.68-1.84,1.49s.9,1.49,2.24,1.49a22.1,22.1,0,0,0,2.46-.15A25.44,25.44,0,0,1,78.57,172.2Zm-39.19,0c2.06,0,3.89.11,5.51.2,1.22.07,2.27.13,3.18.13s3.22-.14,3.22-1.49-1.34-1.72-2.6-2c-4-1.18-4.51-1.63-4.59-6.8,0-.71,0-2,0-3.67-.05-3.12-.12-7.85-.12-12.78,0-3.86.05-7.84.07-11.33,0-5.1,0-9.12.09-10.14.08-2,.49-2.75.63-2.85a4.1,4.1,0,0,1,2.09-.65c7.28,0,13,6,13,13.56,0,9.39-6.13,12.89-10,12.89H47.73a1.37,1.37,0,0,0-1.49,1.25c0,1,1,1.48,1.72,1.78a15.62,15.62,0,0,0,4.57.62,16.51,16.51,0,0,0,9.83-3.76c3-2.54,6-6.1,6-13.19a16.21,16.21,0,0,0-4.95-11.61c-3.52-3.33-8.84-5-15.81-5-2.2,0-5,.18-7.67.36-2.36.16-4.59.3-6.14.3h-.83l-1.1,0a6.85,6.85,0,0,0-.87,0c-1.42.11-2.33.74-2.33,1.65s1.06,1.45,3,1.74c4.1.58,4.12,1.33,4.2,4.1v.21c.09,2.62.25,20.16.25,22.89,0,3.95-.16,10.79-.41,14.94-.22,3-.83,4.6-5.39,5.58-.52.15-2.05.69-2.05,1.81s1.05,1.65,2.81,1.65c1.32,0,2.86-.08,4.34-.17S38.22,172.2,39.38,172.2ZM145.79,121a3.15,3.15,0,0,0-2.42.89,5.39,5.39,0,0,0-1.72,3.75,5.07,5.07,0,0,0,4.47,4.47,4.49,4.49,0,0,0,4.56-4.56A4.76,4.76,0,0,0,145.79,121Z" transform="translate(-0.5 -0.5)"/><path d="M150.53,1.5A149,149,0,0,1,255.92,255.92,149,149,0,0,1,45.15,45.15,148.06,148.06,0,0,1,150.53,1.5m-116.77,116h-.82l-1.11,0a6.88,6.88,0,0,0-.9,0c-2.07.17-2.8,1.22-2.8,2.15s.59,1.81,3.42,2.23c3.69.53,3.7,1,3.77,3.62v.22c.09,2.61.25,20.14.25,22.87,0,3.94-.16,10.76-.41,14.9-.21,2.86-.75,4.22-5,5.13h0l0,0c-1.48.44-2.36,1.29-2.36,2.28S28.59,173,31,173c1.33,0,2.88-.08,4.37-.17s2.83-.16,4-.16c2,0,3.87.11,5.48.2,1.23.07,2.29.13,3.21.13,3.24,0,3.72-1.24,3.72-2,0-1.75-1.93-2.26-2.95-2.53-3.75-1.1-4.16-1.39-4.24-6.32,0-.71,0-2-.05-3.68,0-3.12-.11-7.84-.11-12.76,0-3.87.05-7.85.07-11.34,0-5.09,0-9.11.09-10.13a6,6,0,0,1,.46-2.48,3.62,3.62,0,0,1,1.76-.53c7,0,12.48,5.74,12.48,13.06,0,9-5.82,12.39-9.5,12.39H47.73a1.86,1.86,0,0,0-2,1.75c0,1.4,1.47,2,2.06,2.26a16,16,0,0,0,4.73.64,17.08,17.08,0,0,0,10.16-3.88c3-2.62,6.14-6.27,6.14-13.57a16.75,16.75,0,0,0-5.11-12c-3.62-3.41-9-5.15-16.15-5.15-2.22,0-5,.19-7.7.36-2.36.16-4.58.3-6.11.3m112.36,13.17a5,5,0,0,0,5.06-5.06,5.27,5.27,0,0,0-5.39-5,3.59,3.59,0,0,0-2.74,1,5.85,5.85,0,0,0-1.89,4.16,5.52,5.52,0,0,0,5,4.94m81.68,14.63c0,1.58-.09,5.19-.16,8.68-.08,3.87-.17,7.86-.17,9.42,0,2.51.2,4.39,1.22,6a9.74,9.74,0,0,0,8.13,4.38,13.42,13.42,0,0,0,9.56-3.93,4.56,4.56,0,0,0,1.45-2.78,1.71,1.71,0,0,0-1.5-1.91,3.34,3.34,0,0,0-1.75.64,8.11,8.11,0,0,1-3.54,1.1,6,6,0,0,1-4.36-1.3,4.14,4.14,0,0,1-1.09-3.33c0-3.58.07-14.61.15-17.35h8.77c1.46,0,3.15-.5,3.15-1.91a13.78,13.78,0,0,0-.25-3.22c-.07-1-1.52-1.58-1.91-1.58-.1,0-.61,0-2,.07-2.38.09-6.24.23-7.81.25v-3.54c0-.84-1.34-1.91-2.16-1.91s-1.38.68-2.67,2.18a45.29,45.29,0,0,1-5.52,4.81l-.95.75,0,0,0,0a2.31,2.31,0,0,0-.79,1.61c0,1.12,1.51,1.74,1.81,1.85h.06a9.2,9.2,0,0,1,2.43.95M73.12,173a23.06,23.06,0,0,0,2.51-.15,24.78,24.78,0,0,1,2.94-.18c2.87,0,5,.15,6.78.27,1.14.08,2.13.15,3,.15,2.77,0,3-1.34,3-1.75,0-.72-.38-1.71-2.23-2.29l-.89-.23c-1-.28-2.11-.57-3-.77h-.06c-.55-.09-1.13-.55-1.32-3.3-.08-1.17-.49-16.13-.49-17.79a2.35,2.35,0,0,1,.56-1.15,3.92,3.92,0,0,1,2.9-.83,6.9,6.9,0,0,1,3.88,1.56l0,.05.07,0a3.26,3.26,0,0,0,1.57.44A1.38,1.38,0,0,0,93,147a19.84,19.84,0,0,0,3.76-4.14l0,0,0,0a4.68,4.68,0,0,0,.64-1.67c0-1.47-1.4-3.81-5.14-3.81-2.47,0-5.75,1.61-9,4.36,0-.28,0-.57,0-.85,0-.74.08-1.5.08-2.26,0-.59-.68-2-1.74-2-.5,0-.88.26-1.63.77l-.54.37a38,38,0,0,1-6,2.56,2.6,2.6,0,0,0-1.73,2.35c0,.71.52,1.07,1.3,1.62.45.31,1.06.74,1.89,1.39l0,0,0,0c.42.27.45.82.45,1.64v15.78c-.08,4.88-.28,5.06-2.91,5.94l-.13.05c-.92.34-2.17.8-2.17,2s1.1,2,2.74,2M139,144.14c2.79,1.6,2.85,2.07,2.87,2.24.15,1,.32,5.62.32,21.69,0,9.75-1.43,16.5-4.24,20a22.1,22.1,0,0,1-5.05,3.93l-.09.06-.08.07a1.88,1.88,0,0,0-.21,2.18l.08.13.13.09a4.51,4.51,0,0,0,2.44.63c1.08,0,2.88-1.29,3.39-1.67a28.22,28.22,0,0,0,8.05-8.82c2.35-3.94,3.62-9.25,3.78-15.77,0-.88.09-5.48.14-10.81.08-7.29.18-16.36.28-19.08,0-.54-.7-1.91-1.58-1.91a3.65,3.65,0,0,0-1.88.53,60.91,60.91,0,0,1-7.62,2.58c-.84.28-2.09,1.17-2.09,2.19s.84,1.45,1.36,1.71m121.59,25.49c-2.63,0-4.56-1.55-6.64-5.35-.56-1-1.32-2.42-2.62-2.42-.62,0-1.66.35-1.66,2.73a20.74,20.74,0,0,0,1.39,6.8l.08.15.14.11c1.69,1.4,6.16,2,8.65,2a15,15,0,0,0,7.53-2.09c1.57-1.13,5.21-4.26,5.21-8.92,0-4.17-2.14-7.29-7-10.14-5.66-3.12-7.67-5-7.67-7.14,0-1.17,1.18-4.13,4-4.13,1.58,0,3.65.57,5.7,5,.34.74,1.07,2,2.16,2s2-1,2-2.49c0-.24,0-.71-.09-1.52-.07-1-.16-2.47-.16-3.36a2.66,2.66,0,0,0-1.21-2.05,16.22,16.22,0,0,0-2.87-1,19.58,19.58,0,0,0-4.45-.52,13.23,13.23,0,0,0-7.13,1.88,9.59,9.59,0,0,0-5,8.3c0,3.54,2.09,7,5.59,9.19,1.93,1.25,2.67,1.78,3.79,2.58l1.21.87,0,0h0c2.24,1.38,3.24,2.82,3.24,4.69a5.18,5.18,0,0,1-1.49,3.74,5.26,5.26,0,0,1-2.72,1M115.86,173.7a17.38,17.38,0,0,0,10.82-3.49,18.88,18.88,0,0,0,7.63-15,17.53,17.53,0,0,0-17.54-17.87,19.61,19.61,0,0,0-12.88,4.78,17.07,17.07,0,0,0-6.14,13.67,19.4,19.4,0,0,0,6.47,13.41,18.89,18.89,0,0,0,11.64,4.54m57.63-.17a15.11,15.11,0,0,0,12.82-6.63v0l0,0a5.58,5.58,0,0,0,.72-2.5,1.79,1.79,0,0,0-1.66-2c-.84,0-1.46.77-1.9,1.43-1.18,1.74-3.31,2.54-6.7,2.54a10.76,10.76,0,0,1-8.47-4.15,16,16,0,0,1-2.93-8.82,9.86,9.86,0,0,1,.35-2.55h0c4.08.07,17.07.07,18.57.07a2.65,2.65,0,0,0,2.57-2.4,10.29,10.29,0,0,0-3.18-7.65,12.94,12.94,0,0,0-8.9-3.44,18.46,18.46,0,0,0-6.7,1.58,18.7,18.7,0,0,0-10.5,17.12c0,10.27,6.53,17.45,15.88,17.45m33.32.08a17.62,17.62,0,0,0,12.63-5.44,4.3,4.3,0,0,0,1.35-3.08,1.45,1.45,0,0,0-1.54-1.41,2.78,2.78,0,0,0-1.6.59,11.25,11.25,0,0,1-6.79,2.3,11,11,0,0,1-9.56-5v0l0,0a14.49,14.49,0,0,1-2-7.71,13.16,13.16,0,0,1,3.22-8.84l0,0,0,0a7.14,7.14,0,0,1,4.34-2.44c2.23,0,3.44.89,5.64,2.51l.74.54c.95.65,2.81,1.75,3.79,1.75s3.73-2.49,3.73-4.31a4.68,4.68,0,0,0-1.64-3.28c-2-1.54-6-2.1-8.29-2.1a23.78,23.78,0,0,0-11.39,3.64A18.19,18.19,0,0,0,191,156.32a21.41,21.41,0,0,0,2.71,10.2v0l0,0a15.66,15.66,0,0,0,13.06,7.05M150.53.5a150,150,0,1,0,150,150,150,150,0,0,0-150-150Zm-116.77,118c3.31,0,9.68-.66,13.81-.66,7.52,0,12.4,2,15.46,4.88a15.69,15.69,0,0,1,4.8,11.25c0,7.35-3.39,10.75-5.79,12.81a16.06,16.06,0,0,1-9.51,3.64,14.72,14.72,0,0,1-4.38-.58c-1-.41-1.41-.83-1.41-1.32,0-.33.33-.75,1-.75H49.8c4.38,0,10.5-3.88,10.5-13.39,0-7.53-5.7-14.06-13.48-14.06a4.51,4.51,0,0,0-2.39.75c-.33.24-.75,1.24-.83,3.22-.08,1.74-.08,12-.16,21.5,0,7.52.16,14.39.16,16.45.08,5.38.74,6,5,7.28,1.57.41,2.23.83,2.23,1.57s-1.48,1-2.72,1c-2.07,0-5-.33-8.69-.33-2.4,0-5.78.33-8.35.33-1.4,0-2.31-.41-2.31-1.15,0-.58.82-1.08,1.65-1.33,4.63-1,5.54-2.64,5.79-6,.25-4.05.41-10.83.41-15,0-2.73-.16-20.26-.25-22.9-.08-3,0-4.14-4.63-4.8-1.65-.25-2.56-.74-2.56-1.24,0-.66.83-1.07,1.9-1.16.19,0,.48,0,.8,0l1.93,0Zm112.36,11.17a4.56,4.56,0,0,1-4-4,4.84,4.84,0,0,1,1.58-3.39,2.6,2.6,0,0,1,2.06-.75,4.29,4.29,0,0,1,4.39,4,4,4,0,0,1-4.06,4.06Zm90.7,43.08a8.7,8.7,0,0,1-7.27-3.89c-.91-1.41-1.08-3.14-1.08-5.46,0-3.06.33-15.46.33-18.35,0-.58-1.49-1.16-3.14-1.66-.66-.25-1.16-.66-1.16-.91a1.44,1.44,0,0,1,.5-.91,55.35,55.35,0,0,0,6.61-5.7c1-1.16,1.57-1.82,1.9-1.82a1.9,1.9,0,0,1,1.16.91v3.88a.79.79,0,0,0,.66.67c1.82,0,9.84-.33,10.17-.33.09,0,.91.41.91.66,0,0,0,0,0,0s.24,2.14.24,3.16c0,.74-1.57.91-2.15.91h-9a.83.83,0,0,0-.75.58c-.08,1.65-.16,13.81-.16,17.77a5.11,5.11,0,0,0,1.41,4.06,7,7,0,0,0,5,1.57,9.17,9.17,0,0,0,4.05-1.24c.75-.42.91-.5,1.24-.5.08,0,.5.17.5.91a3.53,3.53,0,0,1-1.16,2.07,12.4,12.4,0,0,1-8.85,3.64ZM73.12,172c-.91,0-1.74-.33-1.74-1,0-.49,1-.82,1.65-1.07,3.23-1.08,3.48-1.9,3.56-6.87V147.31a2.65,2.65,0,0,0-.91-2.48c-2-1.57-2.81-1.9-2.81-2.23a1.58,1.58,0,0,1,1.07-1.41,38.14,38.14,0,0,0,6.12-2.64c1-.67,1.41-1,1.66-1s.74.75.74,1c0,1.48-.16,3-.16,4.54a.38.38,0,0,0,.42.36.31.31,0,0,0,.15,0c3.23-3,6.87-5.12,9.43-5.12,3.39,0,4.14,2.07,4.14,2.81a4.06,4.06,0,0,1-.5,1.16,21.2,21.2,0,0,1-3.39,3.8.28.28,0,0,1-.14,0,2.41,2.41,0,0,1-1-.27A7.87,7.87,0,0,0,86.84,144a4.86,4.86,0,0,0-3.64,1.16,3.17,3.17,0,0,0-.82,1.82c0,1.65.41,16.62.49,17.86.17,2.4.67,4,2.15,4.22,1.08.25,2.57.66,3.81,1s1.49,1,1.49,1.32-.75.75-2,.75c-2.07,0-5-.42-9.76-.42-2.48,0-3.47.33-5.45.33Zm62.09,22.16a3.66,3.66,0,0,1-1.82-.41.91.91,0,0,1,.08-.91,22.27,22.27,0,0,0,5.3-4.13c2.23-2.81,4.46-8.35,4.46-20.67,0-4,0-19.52-.33-21.83-.08-.67-.5-1.33-3.39-3-.33-.17-.83-.5-.83-.83s.66-1,1.41-1.24a67,67,0,0,0,7.77-2.64,2.68,2.68,0,0,1,1.41-.42,1.94,1.94,0,0,1,.58.91c-.17,4.63-.34,27.79-.42,29.85-.16,6.78-1.57,11.83-3.64,15.3a27.46,27.46,0,0,1-7.77,8.52,6.88,6.88,0,0,1-2.81,1.48Zm125.42-23.56a6.27,6.27,0,0,0,3.31-1.24,6.18,6.18,0,0,0,1.9-4.55c0-2.23-1.15-4-3.72-5.54-2-1.4-2.48-1.82-5-3.47s-5.13-4.47-5.13-8.35A8.62,8.62,0,0,1,256.5,140a12.35,12.35,0,0,1,6.61-1.73,18.88,18.88,0,0,1,4.22.49,16.25,16.25,0,0,1,2.65.91,1.79,1.79,0,0,1,.66,1.16c0,1.49.25,4.3.25,4.88,0,.74-.33,1.49-1,1.49-.33,0-.83-.5-1.25-1.41-1.81-3.88-3.88-5.54-6.61-5.54-3.39,0-5,3.39-5,5.13,0,2.81,2.65,5,8.19,8,4.63,2.73,6.44,5.54,6.44,9.26s-2.72,6.62-4.79,8.1A14,14,0,0,1,260,172.7c-2.48,0-6.61-.67-8-1.82a20.87,20.87,0,0,1-1.24-6.29c0-.91.17-1.73.66-1.73.66,0,1.24,1,1.74,1.9,2.32,4.22,4.55,5.87,7.52,5.87ZM115.86,172.7a18,18,0,0,1-11-4.3,18.29,18.29,0,0,1-6.12-12.65,15.91,15.91,0,0,1,5.79-12.9,18.45,18.45,0,0,1,12.23-4.55,16.59,16.59,0,0,1,16.54,16.87,17.8,17.8,0,0,1-7.19,14.22,16.5,16.5,0,0,1-10.26,3.31Zm57.63-.17c-8.93,0-14.88-6.78-14.88-16.45a16.91,16.91,0,0,1,16.2-17.7,12,12,0,0,1,8.19,3.14,9.27,9.27,0,0,1,2.89,6.95,1.68,1.68,0,0,1-1.57,1.4c-.91,0-15,0-18.85-.08-.25,0-.58.42-.66.66a10.58,10.58,0,0,0-.41,2.9,16.89,16.89,0,0,0,3.14,9.42,11.74,11.74,0,0,0,9.26,4.55c3.64,0,6.12-.91,7.52-3,.33-.49.75-1,1.08-1,.49,0,.66.58.66,1a4.62,4.62,0,0,1-.58,2,14.1,14.1,0,0,1-12,6.2Zm33.32.08A14.79,14.79,0,0,1,194.57,166a20.5,20.5,0,0,1-2.56-9.68,17.16,17.16,0,0,1,8-14.3,22.7,22.7,0,0,1,10.83-3.47c2.48,0,6.12.66,7.69,1.9a3.71,3.71,0,0,1,1.24,2.48c0,1.32-2.4,3.31-2.73,3.31a9.15,9.15,0,0,1-3.22-1.57c-2.73-2-4.14-3.23-7-3.23a8.06,8.06,0,0,0-5.12,2.81,14.12,14.12,0,0,0-3.48,9.51,15.48,15.48,0,0,0,2.15,8.27,12.41,12.41,0,0,0,17.78,3.06,1.85,1.85,0,0,1,1-.41c.34,0,.54.18.54.41a3.4,3.4,0,0,1-1.07,2.4,16.61,16.61,0,0,1-11.91,5.12Z" transform="translate(-0.5 -0.5)"/></g></g></svg>