<svg xmlns="http://www.w3.org/2000/svg" viewBox="0 0 128.19 128.19"><g id="Layer_2" data-name="Layer 2"><g id="Weeklies_Boolean" data-name="Weeklies Boolean"><path d="M45.59,64.14h-1.2a2.73,2.73,0,0,1,2.46-1.6,1.58,1.58,0,0,1,1.52,1.33.44.44,0,0,1,0,.2,1.2,1.2,0,0,1-.51.06C47.06,64.14,46.28,64.14,45.59,64.14Z" transform="translate(-0.5 -0.5)"/><path d="M46.85,63a1.13,1.13,0,0,1,.94.59c-.75,0-1.52,0-2.2,0h-.24a2.15,2.15,0,0,1,1.5-.61m0-1a3.3,3.3,0,0,0-3.08,2.25c-.06.16.06.34.12.34.4,0,1,0,1.7,0s1.48,0,2.24,0,1-.15,1-.76a2.05,2.05,0,0,0-2-1.83Z" transform="translate(-0.5 -0.5)"/><path d="M99.49,64.14h-1.2a2.74,2.74,0,0,1,2.47-1.6,1.56,1.56,0,0,1,1.51,1.33.44.44,0,0,1,0,.2,1.15,1.15,0,0,1-.51.06C101,64.14,100.18,64.14,99.49,64.14Z" transform="translate(-0.5 -0.5)"/><path d="M100.76,63a1.15,1.15,0,0,1,.94.59c-.75,0-1.53,0-2.21,0h-.23a2.15,2.15,0,0,1,1.5-.61m0-1a3.31,3.31,0,0,0-3.09,2.25c-.06.16.07.34.13.34.39,0,1,0,1.69,0s1.48,0,2.24,0,1-.15,1-.76a2,2,0,0,0-2-1.83Z" transform="translate(-0.5 -0.5)"/><path d="M58,64.14h-1.2a2.73,2.73,0,0,1,2.46-1.6,1.57,1.57,0,0,1,1.52,1.33.44.44,0,0,1,0,.2,1.15,1.15,0,0,1-.51.06C59.42,64.14,58.64,64.14,58,64.14Z" transform="translate(-0.5 -0.5)"/><path d="M59.21,63a1.16,1.16,0,0,1,.95.59c-.76,0-1.53,0-2.21,0h-.24a2.15,2.15,0,0,1,1.5-.61m0-1a3.3,3.3,0,0,0-3.08,2.25c-.06.16.06.34.12.34.4,0,1,0,1.7,0s1.48,0,2.24,0,1-.15,1-.76a2.05,2.05,0,0,0-2-1.83Z" transform="translate(-0.5 -0.5)"/><path d="M64.6,128.19A63.6,63.6,0,1,1,128.19,64.6,63.67,63.67,0,0,1,64.6,128.19ZM14.47,53.32c-.77,0-1.3.34-1.3.83s.61.94,1.21,1.05c1.07.22,1.24.57,1.76,1.58.1.19.2.4.33.63,1.07,2.08,3.93,8.72,5.07,11.49,1.06,2.5,1.5,3.73,1.78,4.55l.11.28c.14.35.36.91,1,.91.48,0,1-.61,1.17-1a72.67,72.67,0,0,1,3-6.79l.15-.32c.23.54.5,1.14.78,1.74a49.59,49.59,0,0,1,2.15,5.27c.27.91.82,1,1,1,.73,0,1.15-1,1.16-1.08.82-2,1-2.42,3.08-7.18,1.67-3.78,3.35-7,4.07-8.41l.31-.6c.79-1.52,1.26-1.85,2.28-2.06.77-.17,1.16-.52,1.16-1,0-.25-.12-.83-1.29-.83-.49,0-1,0-1.5,0s-1,0-1.4,0l-.92,0c-.38,0-.78,0-1.16,0-1.06,0-1.29.47-1.29.86s.18.7,1.06,1c.51.15.81.31.9.49s0,.6-.24,1.22C37.33,60.6,35,65.78,33.66,68.74c-.69-1.4-1.81-3.86-2.74-6l0-.09s0-.08,0-.11c1.54-3,2.39-4.56,2.84-5.31.83-1.48,1.17-1.74,2.07-2,.49-.12,1.23-.31,1.23-1.07,0-.19-.08-.8-1.17-.8l-.93,0c-.49,0-1.06,0-1.57,0s-1,0-1.37,0l-.77,0c-.92,0-1.38.29-1.38.86s.52.82,1,.95.82.22.91.41.09.41-.29,1.24c-.58,1.32-1.06,2.4-1.58,3.48Q28.35,56.9,28,56a2.1,2.1,0,0,1-.2-.61h0a5.45,5.45,0,0,1,.77-.19c1.05-.2,1.14-.87,1.14-1.07,0-.5-.5-.83-1.27-.83l-.56,0c-.54,0-1.39.07-2.34.07l-1.75,0H23c-1.25,0-1.38.58-1.38.83s.14.76,1.13,1,1.06.34,1.94,2.18c.38.84,1.77,4,2.92,6.69-.75,1.76-1.71,3.74-2.23,4.75-2.09-4.56-5.09-11.65-5.67-13.07a.36.36,0,0,1,0-.24s.11-.16.64-.3c.37-.11,1.2-.34,1.2-1.07,0-.32-.17-.86-1.26-.86l-.8,0c-.59,0-1.34.06-1.77.06-.6,0-1.07,0-1.55,0S15.16,53.32,14.47,53.32Zm92.88,16.45c-.22,0-.74.11-.74,1.14a7.8,7.8,0,0,0,.53,2.57l0,.08.07,0a6.51,6.51,0,0,0,3.28.79,5.71,5.71,0,0,0,2.84-.79,4.42,4.42,0,0,0,2-3.4c0-1.6-.81-2.78-2.63-3.85-2-1.12-2.77-1.81-2.77-2.53a1.46,1.46,0,0,1,1.33-1.4c.58,0,1.26.21,2,1.76.23.52.56.81.91.81a.93.93,0,0,0,.86-1c0-.09,0-.3,0-.57s-.06-.9-.06-1.23a1.11,1.11,0,0,0-.52-.88,6.62,6.62,0,0,0-1.11-.38,7.51,7.51,0,0,0-1.64-.19,5,5,0,0,0-2.71.72,3.67,3.67,0,0,0-1.92,3.17,4.25,4.25,0,0,0,2.13,3.5c.71.46,1,.66,1.39,1l.45.32c1,.63,1.16,1.18,1.16,1.64a1.82,1.82,0,0,1-.51,1.29,1.86,1.86,0,0,1-.91.34c-.67,0-1.42-.23-2.34-1.9C108.22,70.34,107.91,69.77,107.35,69.77Zm-6.29-9a7,7,0,0,0-2.53.6,7,7,0,0,0-4,6.43c0,3.87,2.47,6.58,6,6.58a5.7,5.7,0,0,0,4.84-2.51,2.13,2.13,0,0,0,.3-1A.78.78,0,0,0,105,70a1.05,1.05,0,0,0-.81.59,2.66,2.66,0,0,1-2.37.87,3.83,3.83,0,0,1-3-1.47,5.74,5.74,0,0,1-1.06-3.18,4,4,0,0,1,.09-.81c1.59,0,6.22,0,6.76,0a1.1,1.1,0,0,0,1.08-1A4,4,0,0,0,104.43,62,4.9,4.9,0,0,0,101.06,60.73Zm-41.54,0a6.91,6.91,0,0,0-2.53.6,7,7,0,0,0-4,6.43c0,3.87,2.46,6.58,6,6.58a5.7,5.7,0,0,0,4.84-2.51,2.25,2.25,0,0,0,.3-1,.78.78,0,0,0-.74-.87,1.05,1.05,0,0,0-.82.59,2.62,2.62,0,0,1-2.36.87,3.81,3.81,0,0,1-3-1.47,5.75,5.75,0,0,1-1.07-3.18,4,4,0,0,1,.1-.81c1.59,0,6.21,0,6.76,0a1.1,1.1,0,0,0,1.08-1A4,4,0,0,0,62.89,62,4.9,4.9,0,0,0,59.52,60.73Zm-12.36,0a6.91,6.91,0,0,0-2.53.6,7,7,0,0,0-4,6.43c0,3.87,2.46,6.58,6,6.58a5.7,5.7,0,0,0,4.84-2.51,2.29,2.29,0,0,0,.3-1,.79.79,0,0,0-.75-.87,1.05,1.05,0,0,0-.81.59,2.64,2.64,0,0,1-2.36.87,3.84,3.84,0,0,1-3-1.47,5.82,5.82,0,0,1-1.06-3.18,4,4,0,0,1,.1-.81c1.59,0,6.21,0,6.76,0a1.11,1.11,0,0,0,1.08-1A4,4,0,0,0,50.52,62,4.87,4.87,0,0,0,47.16,60.73Zm26,11.52c-.87.2-1.06.61-1.06.92s.34.89,1.27.89h1.37c.94,0,1.85.07,2.59.12.51,0,.94.07,1.22.07a1.84,1.84,0,0,0,.81-.15l.45,0,1.31,0c.5,0,1,0,1.38,0l1.1,0c.52,0,1.09.05,1.49.05.64,0,1.29-.26,1.29-.83s-.8-.87-1.07-.94c-1.06-.3-1.1-.49-1.2-1S84,66.93,84,63.51V60.38c0-3.93.18-7.46.27-8.24a.85.85,0,0,0-.73-.88h-.16l-.16.1a8,8,0,0,1-1.89.76l-1.13.37a1,1,0,0,0-.77.9c0,.41.29.61.82,1s.51.38.53.48c.09.82.09,4.14.09,6.34,0,5-.1,8.1-.19,9.24-.11,1.47-.13,1.7-1.19,1.93a1.76,1.76,0,0,0-.47.15,1.8,1.8,0,0,0-.35-.12,3.52,3.52,0,0,1-1.85-1c-.93-.94-3.62-3.85-4.72-5.18a19.46,19.46,0,0,1,2.27-2.08,7.35,7.35,0,0,1,3.35-1.53c.26-.07,1-.48,1-1.16a.73.73,0,0,0-.71-.72,9.78,9.78,0,0,0-1.46.15,17.59,17.59,0,0,1-2.66.22H72.49a1.24,1.24,0,0,0-1,1,.76.76,0,0,0,.7.71,4.33,4.33,0,0,1,.64.13A39,39,0,0,1,70,65.83l-.25.22c0-.59,0-1.89,0-2.65,0-3,.13-10.51.26-11.13a1,1,0,0,0-.22-.73.6.6,0,0,0-.48-.27,1.66,1.66,0,0,0-.87.35,9.31,9.31,0,0,1-2.28.82l-.26.07a1,1,0,0,0-.75.88c0,.32.23.56.59.83a4,4,0,0,1,.73.51c.11,1.13.17,3.23.17,6.32,0,4.56-.1,9.89-.2,10.36s-.14.7-1.22,1c-.42.12-1.08.33-1.08.94,0,.14.06.83,1.2.83.31,0,.65,0,1-.05s1-.07,1.53-.07l1.25,0,1.29,0c1.11,0,1.23-.58,1.23-.83,0-.68-.76-.87-1.05-1-.69-.18-.7-.25-.76-.59a20.16,20.16,0,0,1-.1-3.53l.11.14c.85,1,1.71,1.94,2.38,2.67.52.57.91,1,1.06,1.19l0,0ZM91.23,60.6c-.17,0-.47.16-.84.3a14.81,14.81,0,0,1-2.16.73,1.14,1.14,0,0,0-1,1,.91.91,0,0,0,.47.75,7.5,7.5,0,0,1,1.06.83c0,.22,0,2.73,0,3.81v.8a28.51,28.51,0,0,1-.11,3,1.47,1.47,0,0,1-.86.48c-.34.1-1.1.32-1.1,1,0,.19.09.83,1.29.83l.93,0c.49,0,1.09-.08,1.66-.08.4,0,1.15,0,1.7.06l.68,0c.58,0,1.21-.25,1.21-.8s-.72-.9-1-1l-.28-.09C92.18,72,92,72,92,71.5c0-1.06-.06-2.34-.06-4,0-1.2.09-3.5.14-4.87,0-.62,0-1.07,0-1.17s-.3-.84-.77-.84h-.07Zm-.73-6.09A2.29,2.29,0,0,0,89,55l0,0,0,0a2.62,2.62,0,0,0-.47,1.39A2.11,2.11,0,0,0,89,58a2.22,2.22,0,0,0,1.35.54,2.11,2.11,0,0,0,2-2A2,2,0,0,0,90.5,54.51Z" transform="translate(-0.5 -0.5)"/><path d="M64.6,1.5A63.1,63.1,0,1,1,1.5,64.6,63.16,63.16,0,0,1,64.6,1.5M80.1,52A1.47,1.47,0,0,0,79,53.39c0,.67.48,1,1,1.4l0,0h0l.27.18c.08.88.08,4.2.08,6.2,0,5-.1,8.07-.18,9.2-.11,1.33-.11,1.33-.77,1.48a2.34,2.34,0,0,0-.4.1l-.25-.07a2.87,2.87,0,0,1-1.58-.82c-.87-.87-3.2-3.39-4.42-4.82a17.74,17.74,0,0,1,1.87-1.68,7,7,0,0,1,3.21-1.47,1.87,1.87,0,0,0,1.37-1.64,1.24,1.24,0,0,0-1.21-1.22,11.48,11.48,0,0,0-1.53.15,16.68,16.68,0,0,1-2.59.22H72.49A1.72,1.72,0,0,0,71,62.18a1.23,1.23,0,0,0,.9,1.15c-.48.5-1.1,1.09-1.64,1.6V63.4c0-2.92.13-10.31.24-11a1.4,1.4,0,0,0-.31-1.18,1.08,1.08,0,0,0-.87-.46,2.21,2.21,0,0,0-1.15.43A8.93,8.93,0,0,1,66,52l-.29.08h-.06a1.5,1.5,0,0,0-1,1.33,1.59,1.59,0,0,0,.79,1.23l0,0,0,0A4.17,4.17,0,0,1,66,55c.1,1.09.15,3.13.15,6.07,0,4.41-.1,9.69-.19,10.27a2,2,0,0,1-.08.3,2.67,2.67,0,0,1-.77.27h0a2.85,2.85,0,0,0-.89.41c0-.06.09-.13.14-.2l0,0v0a2.7,2.7,0,0,0,.36-1.24,1.29,1.29,0,0,0-1.24-1.37,1.58,1.58,0,0,0-1.23.8c-.19.29-.6.66-2,.66a3.31,3.31,0,0,1-2.62-1.28,5.33,5.33,0,0,1-1-2.87c0-.09,0-.2,0-.31,1.82,0,5.53,0,6.34,0A1.61,1.61,0,0,0,64.61,65a4.43,4.43,0,0,0-1.36-3.27,5.37,5.37,0,0,0-3.73-1.46,7.46,7.46,0,0,0-2.74.64,7.53,7.53,0,0,0-4.24,6.89c0,4.17,2.67,7.08,6.49,7.08a6.21,6.21,0,0,0,4.69-2,1.07,1.07,0,0,0-.1.49c0,.49.36,1.33,1.7,1.33.33,0,.69,0,1.06-.05s.94-.07,1.5-.07l1.24,0,1.3,0a1.71,1.71,0,0,0,1.49-.6,1.83,1.83,0,0,0,1.47.57h1.37c.92,0,1.83.07,2.56.12.52,0,.94.07,1.25.07a2.41,2.41,0,0,0,.88-.14h.38l1.33,0c.5,0,1,0,1.36,0l1.07,0c.54,0,1.1.05,1.52.05a2,2,0,0,0,1.41-.47,1.89,1.89,0,0,0,1.46.5c.23,0,.57,0,1-.05s1.08-.07,1.63-.07c.38,0,1.13,0,1.68.06l.7,0c1,0,1.71-.53,1.71-1.3s-.47-1.19-1.37-1.47a1.71,1.71,0,0,0-.3-.09,4,4,0,0,1-.46-.16.31.31,0,0,1,0-.11c0-1.1-.06-2.35-.06-4,0-1.19.09-3.48.14-4.85,0-.63,0-1.09,0-1.19a1.43,1.43,0,0,0-1.27-1.34h-.14l-.12,0a9.36,9.36,0,0,0-.9.33,15.3,15.3,0,0,1-2,.69,1.66,1.66,0,0,0-1.44,1.51,1.35,1.35,0,0,0,.66,1.14c.34.24.68.49.86.64,0,.7,0,2.69,0,3.6v.81c0,1.13,0,2.36-.08,2.81a1.66,1.66,0,0,1-.55.23,2.57,2.57,0,0,0-1.07.56,2.34,2.34,0,0,0-1.09-.56,2,2,0,0,1-.78-.32,1.83,1.83,0,0,1-.06-.25c-.1-.56-.09-4.57-.08-7.79V60.38c0-4.19.19-7.55.27-8.18v-.12a1.36,1.36,0,0,0-.29-.8,1.18,1.18,0,0,0-1-.52h-.32l-.25.16a8,8,0,0,1-1.79.71L80.1,52m-39.48.9-.9,0c-.39,0-.79,0-1.18,0a1.93,1.93,0,0,0-1.4.44,1.72,1.72,0,0,0-1.31-.44l-.95,0c-.48,0-1,0-1.55,0s-1,0-1.35,0l-.79,0a2.24,2.24,0,0,0-1.42.38,2,2,0,0,0-1.33-.41l-.58,0c-.55,0-1.38.07-2.32.07l-1.74,0H23a2.26,2.26,0,0,0-1.39.36,1.91,1.91,0,0,0-1.35-.42l-.83,0c-.56,0-1.33.06-1.74.06-.59,0-1,0-1.52,0s-1,0-1.74,0c-1,0-1.8.56-1.8,1.33a1.72,1.72,0,0,0,1.59,1.53c.85.18.93.34,1.43,1.33.1.19.21.41.33.62,1.07,2.08,3.92,8.69,5.06,11.47,1.06,2.48,1.47,3.66,1.77,4.51l.12.32a1.59,1.59,0,0,0,1.48,1.21,2.07,2.07,0,0,0,1.64-1.38,66.29,66.29,0,0,1,2.67-6.07c.11.25.23.5.34.76a49.11,49.11,0,0,1,2.14,5.21c.37,1.26,1.25,1.36,1.51,1.36a2,2,0,0,0,1.63-1.39c.81-2,1-2.42,3.07-7.17,1.66-3.77,3.34-7,4-8.38.15-.28.26-.49.31-.6.78-1.5,1.16-1.64,2-1.8,1.34-.3,1.54-1.09,1.54-1.53,0-.22-.08-1.33-1.79-1.33-.5,0-1,0-1.52,0s-.94,0-1.38,0M90.38,59a2.61,2.61,0,0,0,2.46-2.5A2.53,2.53,0,0,0,90.5,54a2.82,2.82,0,0,0-1.86.65l-.08.07-.06.09a3.11,3.11,0,0,0-.56,1.68,2.6,2.6,0,0,0,.72,1.8l0,0,0,0a2.77,2.77,0,0,0,1.64.62m20.39,13.13c-.48,0-1.07-.12-1.9-1.64-.23-.43-.67-1.22-1.52-1.22a1.22,1.22,0,0,0-1.2,1.11,1.22,1.22,0,0,0-1.18-.93,1.58,1.58,0,0,0-1.23.8c-.19.29-.6.66-1.95.66a3.31,3.31,0,0,1-2.62-1.28,5.32,5.32,0,0,1-1-2.87,1.72,1.72,0,0,1,0-.31c1.81,0,5.52,0,6.33,0A1.6,1.6,0,0,0,106.15,65a4.39,4.39,0,0,0-1.36-3.27,5.35,5.35,0,0,0-3.73-1.46,7.23,7.23,0,0,0-7,7.53c0,4.17,2.67,7.08,6.49,7.08a6.17,6.17,0,0,0,5.25-2.73l0,0,0,0a2.75,2.75,0,0,0,.27-.68,7.61,7.61,0,0,0,.58,2.36l.08.15.14.11a6.94,6.94,0,0,0,3.6.9,6.22,6.22,0,0,0,3.14-.89,4.93,4.93,0,0,0,2.19-3.8c0-1.79-.89-3.11-2.9-4.3-1.75-1-2.5-1.59-2.5-2.08,0-.15.22-.9.83-.9.27,0,.85,0,1.53,1.46.44,1,1,1.11,1.37,1.11A1.43,1.43,0,0,0,115.55,64c0-.09,0-.32,0-.6s-.06-.9-.06-1.2a1.59,1.59,0,0,0-.8-1.33,7.78,7.78,0,0,0-1.19-.41,7.54,7.54,0,0,0-1.78-.21,5.4,5.4,0,0,0-3,.79,4.13,4.13,0,0,0-2.17,3.6,4.75,4.75,0,0,0,2.36,3.92c.7.45,1,.65,1.37.94l.45.32,0,0,0,0c.78.48.89.85.89,1.19a1.4,1.4,0,0,1-.29.87,1.36,1.36,0,0,1-.63.26m-64.1,2.71a6.19,6.19,0,0,0,5.25-2.73l0,0v0a2.74,2.74,0,0,0,.36-1.24,1.29,1.29,0,0,0-1.25-1.37,1.56,1.56,0,0,0-1.22.8c-.19.29-.61.66-2,.66a3.31,3.31,0,0,1-2.62-1.28,5.25,5.25,0,0,1-1-2.87c0-.09,0-.2,0-.31,1.81,0,5.52,0,6.34,0A1.61,1.61,0,0,0,52.25,65a4.43,4.43,0,0,0-1.36-3.27,5.37,5.37,0,0,0-3.73-1.46,7.46,7.46,0,0,0-2.74.64,7.53,7.53,0,0,0-4.24,6.89c0,4.17,2.67,7.08,6.49,7.08M37.14,55.1a2.43,2.43,0,0,0,1,.56,2.3,2.3,0,0,1,.57.23,2.45,2.45,0,0,1-.23.79C37,60,35,64.54,33.65,67.57c-.66-1.38-1.52-3.32-2.25-5,1.48-2.9,2.3-4.37,2.74-5.12.79-1.42,1-1.54,1.75-1.72a2.63,2.63,0,0,0,1.25-.6m-7.36.07a2.22,2.22,0,0,0,.93.47c.3.08.46.14.55.17a3.53,3.53,0,0,1-.28.81c-.4.91-.76,1.7-1.11,2.47-.74-1.67-1.22-2.77-1.43-3.29v0l.23,0a2.07,2.07,0,0,0,1.12-.55m-8.18,0a2.49,2.49,0,0,0,1,.54c.81.23.83.23,1.62,1.89.38.83,1.73,3.85,2.86,6.54-.56,1.23-1.2,2.56-1.68,3.54-2-4.35-4.52-10.36-5.16-11.91l.22-.07a2.73,2.73,0,0,0,1.09-.53M70.21,69.5c.6.68,1.19,1.32,1.65,1.83l.58.65a1.49,1.49,0,0,0-.58.46,2.12,2.12,0,0,0-1.13-.61,1.87,1.87,0,0,1-.38-.12.56.56,0,0,1,0-.07v0a14,14,0,0,1-.12-2.1M64.6.5a64.1,64.1,0,1,0,64.09,64.1A64.1,64.1,0,0,0,64.6.5ZM79.08,73.09a1.25,1.25,0,0,1,.56-.23c1.4-.31,1.46-.85,1.58-2.38.09-1.25.19-4.46.19-9.28,0-2.26,0-5.55-.1-6.38,0-.24,0-.42-.73-.85-.52-.37-.61-.46-.61-.58s.09-.34.43-.43a15.91,15.91,0,0,0,3.14-1.19h0c.09,0,.24.21.24.32-.09.76-.28,4.21-.28,8.3,0,4.45-.06,10.28.09,11.11.13.61.25,1,1.56,1.34.46.12.7.27.7.46s-.42.33-.79.33c-.73,0-2-.09-2.59-.09-.71,0-2.05.09-2.69.09a2.54,2.54,0,0,1-.56-.05,1,1,0,0,1-.7.18c-.7,0-2.22-.19-3.81-.19H73.38c-.43,0-.77-.12-.77-.39s.28-.34.68-.43c.64-.15.73-.43.39-.86s-1.92-2.1-3.45-3.87c-.3-.37-.61-.7-.76-.7s-.15.18-.15.24a18.27,18.27,0,0,0,0,4.24c.09.61.3.8,1.13,1,.36.09.67.21.67.46s-.4.33-.73.33c-.77,0-1.77-.06-2.54-.06-1.06,0-1.89.12-2.56.12-.37,0-.7-.09-.7-.33s.3-.34.7-.46c1.22-.31,1.43-.58,1.59-1.34.12-.58.21-6.41.21-10.47s-.09-5.65-.18-6.44c0-.09-.06-.27-.92-.79-.24-.19-.39-.34-.39-.43s.15-.31.39-.4a11.15,11.15,0,0,0,2.66-.94,1.31,1.31,0,0,1,.61-.28.52.52,0,0,1,.21.4c-.15.73-.27,8.6-.27,11.23a25.76,25.76,0,0,0,.09,3.08c.06.19.09.28.24.28s.4-.22.61-.4a31.84,31.84,0,0,0,3.24-3.3c.12-.15.21-.45-1.16-.67-.19,0-.28-.12-.28-.21s.31-.55.52-.55h1.44c2,0,3.08-.37,4.12-.37a.23.23,0,0,1,.21.22c0,.36-.49.64-.61.67a7.86,7.86,0,0,0-3.54,1.62,16.79,16.79,0,0,0-2.47,2.32.37.37,0,0,0,0,.3c1,1.28,4,4.46,4.91,5.4a4,4,0,0,0,2.08,1.1,1.57,1.57,0,0,1,.48.2ZM40.62,53.91c.92,0,2-.09,2.9-.09.52,0,.79.12.79.33s-.21.43-.76.55c-1.19.25-1.77.67-2.62,2.32-.37.73-2.39,4.49-4.4,9-2.07,4.73-2.26,5.16-3.08,7.21-.12.3-.43.76-.7.76s-.4-.12-.55-.64c-.46-1.68-2.17-5.22-3.27-7.78a.22.22,0,0,0-.16-.11.08.08,0,0,0-.08.05c-1,2-2.75,5.58-3.54,7.9-.12.34-.52.7-.7.7s-.37-.12-.55-.58c-.31-.85-.71-2-1.9-4.85s-4-9.4-5.09-11.54c-.8-1.46-.89-2.13-2.44-2.47-.37-.06-.8-.27-.8-.55s.31-.33.8-.33c1.34,0,2,.09,3.26.09.7,0,2.29-.09,2.57-.09.58,0,.76.15.76.36s-.18.4-.83.58c-1,.28-1.13.7-.94,1.22.61,1.5,3.9,9.28,6,13.74a.14.14,0,0,0,.13.08c.05,0,.09,0,.11,0,.25-.4,1.62-3.15,2.63-5.4a.55.55,0,0,0,0-.43C27,61.14,25.54,58,25.18,57.2c-.89-1.86-1.07-2.1-2.26-2.44-.55-.15-.76-.36-.76-.55s.42-.33.88-.33,1.53,0,2.5,0c1.41,0,2.6-.09,2.9-.09s.77.12.77.33-.25.49-.74.58c-1.31.25-1.37.49-.94,1.47.27.7,1.07,2.5,2.2,5a.09.09,0,0,0,.09.06A.2.2,0,0,0,30,61.2c.73-1.49,1.31-2.78,1.92-4.18.76-1.68.31-2-.94-2.35-.37-.09-.64-.33-.64-.46s.18-.36.88-.36c.55,0,1.13.06,2.14.06s2-.06,2.5-.06.67.09.67.3-.24.43-.85.58c-1.1.28-1.53.67-2.38,2.2-.31.52-1.13,2-2.9,5.43a1,1,0,0,0,.09.52c1.1,2.59,2.47,5.59,3,6.65,0,.1.08.18.15.18s.12,0,.19-.18c1.31-2.8,3.78-8.36,5.58-12.45.58-1.4.43-2-1-2.38-.39-.12-.7-.3-.7-.49s.28-.36.79-.36c.71,0,1.5.06,2.08.06ZM90.38,58a1.77,1.77,0,0,1-1-.37,1.62,1.62,0,0,1-.46-1.13,2.21,2.21,0,0,1,.37-1.1A1.83,1.83,0,0,1,90.5,55a1.54,1.54,0,0,1,1.34,1.49A1.62,1.62,0,0,1,90.38,58ZM88,73.65c-.49,0-.79-.12-.79-.33s.21-.34.73-.49c.7-.18,1.16-.55,1.22-.86a30.15,30.15,0,0,0,.12-3.14c0-.91,0-4.39,0-4.76,0-.21-.37-.46-1.25-1.1-.18-.12-.25-.21-.25-.33s.28-.46.61-.52c1.13-.25,2.57-.92,3-1,.12,0,.27.31.27.34,0,.33-.18,4.3-.18,6s0,3,.06,4.06.7,1,1.46,1.28c.49.15.68.3.68.52s-.37.3-.71.3-1.74-.09-2.38-.09c-1,0-2.07.12-2.59.12Zm22.8-.52a2.34,2.34,0,0,0,1.22-.45,2.28,2.28,0,0,0,.7-1.68,2.34,2.34,0,0,0-1.37-2c-.73-.52-.92-.67-1.86-1.28a3.77,3.77,0,0,1-1.9-3.08,3.17,3.17,0,0,1,1.68-2.75,4.64,4.64,0,0,1,2.45-.64,6.21,6.21,0,0,1,1.55.19,5.63,5.63,0,0,1,1,.33.63.63,0,0,1,.24.43c0,.55.09,1.59.09,1.8s-.12.55-.36.55-.31-.18-.46-.52c-.67-1.44-1.43-2-2.44-2a2,2,0,0,0-1.83,1.9c0,1,1,1.83,3,3,1.71,1,2.38,2,2.38,3.42a3.89,3.89,0,0,1-1.77,3,5.27,5.27,0,0,1-2.56.7,6.27,6.27,0,0,1-3-.67,7.91,7.91,0,0,1-.45-2.32c0-.34.06-.64.24-.64s.46.36.64.7c.86,1.55,1.68,2.16,2.78,2.16Zm-10.2.71c-3.29,0-5.49-2.51-5.49-6.08a6.51,6.51,0,0,1,3.66-6,6.6,6.6,0,0,1,2.32-.55,4.41,4.41,0,0,1,3,1.16A3.44,3.44,0,0,1,105.15,65a.61.61,0,0,1-.58.51c-.33,0-5.55,0-7,0-.09,0-.21.16-.24.25a4,4,0,0,0-.15,1.07,6.28,6.28,0,0,0,1.16,3.48,4.33,4.33,0,0,0,3.41,1.67,3.09,3.09,0,0,0,2.78-1.09c.12-.19.28-.37.4-.37s.24.21.24.37a1.74,1.74,0,0,1-.21.73,5.24,5.24,0,0,1-4.43,2.29ZM59,73.84c-3.3,0-5.49-2.51-5.49-6.08a6.24,6.24,0,0,1,6-6.53,4.41,4.41,0,0,1,3,1.16A3.44,3.44,0,0,1,63.61,65a.62.62,0,0,1-.58.51c-.34,0-5.55,0-7,0-.09,0-.21.16-.24.25a3.59,3.59,0,0,0-.16,1.07,6.28,6.28,0,0,0,1.16,3.48,4.37,4.37,0,0,0,3.42,1.67A3.1,3.1,0,0,0,63,70.82c.12-.19.27-.37.4-.37s.24.21.24.37a1.74,1.74,0,0,1-.21.73A5.24,5.24,0,0,1,59,73.84Zm-12.36,0c-3.3,0-5.49-2.51-5.49-6.08a6.24,6.24,0,0,1,6-6.53,4.41,4.41,0,0,1,3,1.16A3.44,3.44,0,0,1,51.25,65a.62.62,0,0,1-.58.51c-.34,0-5.56,0-7,0-.09,0-.22.16-.25.25a4,4,0,0,0-.15,1.07,6.28,6.28,0,0,0,1.16,3.48,4.34,4.34,0,0,0,3.42,1.67,3.1,3.1,0,0,0,2.78-1.09c.12-.19.27-.37.39-.37s.25.21.25.37a1.61,1.61,0,0,1-.22.73,5.21,5.21,0,0,1-4.42,2.29Z" transform="translate(-0.5 -0.5)"/></g></g></svg>